<svg width="465" height="169" viewBox="0 0 465 169" fill="none" xmlns="http://www.w3.org/2000/svg">
<path d="M456.675 7.60637C446.365 13.7794 436.054 19.927 425.793 26.2012C425.079 26.6313 424.587 27.9469 424.513 28.8829C422.889 51.222 412.136 67.4894 393.041 77.8367C389.866 79.557 386.126 80.2654 381.967 79.9112C376.48 79.4558 373.01 74.9779 373.576 69.3362C374.068 64.4029 376.48 60.4056 379.334 56.636C385.683 48.3126 393.68 41.7855 401.875 35.5619C407.067 31.6152 412.48 27.9975 417.943 24.1014C416.59 21.3691 413.292 19.4211 410.438 19.674C405.024 20.1294 402.441 21.3944 398.356 23.0641C385.535 28.301 374.462 36.498 364.644 46.2887C357.335 53.5748 350.544 61.3923 343.531 68.982C342.916 69.6398 342.35 70.3735 341.734 70.9553C340.775 71.8661 339.815 72.2203 338.905 71.5878C337.92 71.1324 338.289 69.488 338.56 68.6278C339.003 67.2111 339.741 65.8449 340.627 64.6812C354.432 46.1875 370.328 30.0973 390.949 19.6993C395.477 17.4224 400.398 15.8286 405.295 14.5636C412.333 12.7674 418.558 14.26 422.742 21.2173C432.757 15.7021 442.624 10.2628 452.664 4.72227C448.973 4.72227 445.479 4.72227 441.96 4.72227C441.369 4.72227 440.779 4.79817 440.188 4.74757C438.589 4.62108 436.473 4.94997 436.325 2.57185C436.177 0.244333 438.318 0.219032 439.721 0.193733C446.832 0.0166394 453.968 -0.0845569 461.08 0.0925369C463.983 0.168434 465.386 2.14176 464.205 4.82347C460.858 12.6156 457.143 20.2812 453.402 27.8963C453.058 28.6046 451.803 29.6925 450.4 28.9841C449.367 28.3263 449.391 26.606 449.711 25.7711C451.655 20.7366 453.821 15.778 455.937 10.7941C456.306 9.90859 456.724 9.02312 457.118 8.13765C458.004 6.7715 457.487 7.12569 456.675 7.60637ZM419.986 30.4768C420.059 29.566 418.731 30.7551 418.509 30.9068C406.919 38.8508 395.6 47.1489 386.224 57.8504C383.714 60.7092 381.598 64.1246 380.048 67.6411C378.006 72.3215 380.589 75.5851 385.535 74.649C388.734 74.0418 392.056 72.954 394.837 71.2336C406.673 63.9728 416.098 49.8306 418.509 39.7868C419.395 35.9414 419.395 34.8788 419.986 30.4768Z" fill="black"/>
<rect width="343.122" height="80" transform="translate(0 89)" fill="white"/>
<path d="M46.7143 127.781L25.96 124.125V151.142C25.9602 151.435 26.0183 151.726 26.1308 151.997C26.2434 152.268 26.4082 152.514 26.6159 152.722C26.8236 152.929 27.0701 153.093 27.3414 153.206C27.6127 153.318 27.9033 153.375 28.1968 153.375H64.0093C64.3032 153.376 64.5942 153.319 64.8659 153.207C65.1376 153.095 65.3846 152.93 65.5927 152.723C65.8008 152.516 65.966 152.269 66.0788 151.998C66.1915 151.727 66.2497 151.436 66.25 151.142V141.188L46.7143 127.781Z" fill="#185C37"/>
<path d="M46.7143 104.625H28.1968C27.9033 104.625 27.6127 104.682 27.3414 104.794C27.0701 104.907 26.8236 105.071 26.6159 105.278C26.4082 105.486 26.2434 105.732 26.1308 106.003C26.0183 106.274 25.9602 106.565 25.96 106.858V116.813L46.7143 129L57.7037 132.656L66.25 129V116.813L46.7143 104.625Z" fill="#21A366"/>
<path d="M25.96 116.812H46.7143V129H25.96V116.812Z" fill="#107C41"/>
<path opacity="0.1" d="M40.8137 114.375H25.96V144.844H40.8137C41.4056 144.841 41.9725 144.605 42.3915 144.187C42.8106 143.769 43.048 143.202 43.0525 142.611V116.608C43.048 116.016 42.8106 115.45 42.3915 115.032C41.9725 114.614 41.4056 114.378 40.8137 114.375Z" fill="black"/>
<path opacity="0.2" d="M39.5931 115.594H25.96V146.062H39.5931C40.185 146.06 40.7518 145.824 41.1709 145.406C41.5899 144.988 41.8274 144.421 41.8318 143.829V117.827C41.8274 117.235 41.5899 116.669 41.1709 116.251C40.7518 115.833 40.185 115.597 39.5931 115.594Z" fill="black"/>
<path opacity="0.2" d="M39.5931 115.594H25.96V143.625H39.5931C40.185 143.622 40.7518 143.386 41.1709 142.968C41.5899 142.55 41.8274 141.984 41.8318 141.392V117.827C41.8274 117.235 41.5899 116.669 41.1709 116.251C40.7518 115.833 40.185 115.597 39.5931 115.594Z" fill="black"/>
<path opacity="0.2" d="M38.3725 115.594H25.96V143.625H38.3725C38.9643 143.622 39.5312 143.386 39.9503 142.968C40.3693 142.55 40.6068 141.984 40.6112 141.392V117.827C40.6068 117.235 40.3693 116.669 39.9503 116.251C39.5312 115.833 38.9643 115.597 38.3725 115.594Z" fill="black"/>
<path d="M15.9888 115.594H38.3725C38.9654 115.593 39.5343 115.828 39.9541 116.247C40.3739 116.666 40.6103 117.234 40.6113 117.827V140.173C40.6103 140.766 40.3739 141.334 39.9541 141.753C39.5343 142.172 38.9654 142.407 38.3725 142.406H15.9888C15.6951 142.407 15.4042 142.349 15.1327 142.237C14.8613 142.125 14.6145 141.961 14.4066 141.754C14.1987 141.546 14.0337 141.3 13.921 141.029C13.8084 140.758 13.7502 140.467 13.75 140.173V117.827C13.7502 117.533 13.8084 117.242 13.921 116.971C14.0337 116.7 14.1987 116.454 14.4066 116.246C14.6145 116.039 14.8613 115.875 15.1327 115.763C15.4042 115.651 15.6951 115.593 15.9888 115.594Z" fill="url(#paint0_linear_59_274)"/>
<path d="M20.6875 136.262L25.3956 128.979L21.0831 121.738H24.5463L26.8994 126.375C27.1169 126.814 27.2744 127.14 27.3456 127.357H27.3775C27.5312 127.005 27.6944 126.666 27.865 126.334L30.3813 121.746H33.5687L29.1456 128.946L33.6813 136.267H30.2894L27.5706 131.184C27.4444 130.966 27.3371 130.737 27.25 130.5H27.205C27.1257 130.731 27.02 130.952 26.89 131.158L24.0906 136.262H20.6875Z" fill="white"/>
<path d="M64.0112 104.625H46.7144V116.813H66.25V106.858C66.2497 106.564 66.1916 106.274 66.079 106.003C65.9663 105.731 65.8013 105.485 65.5934 105.278C65.3855 105.07 65.1387 104.906 64.8672 104.794C64.5958 104.682 64.3049 104.625 64.0112 104.625Z" fill="#33C481"/>
<path d="M46.7144 129H66.25V141.188H46.7144V129Z" fill="#107C41"/>
<path d="M81.66 137V122.1H83.3L91.86 134.14L91.12 134.22V122.1H93.1V137H91.46L82.94 124.88L83.62 124.8V137H81.66ZM101.326 137.24C100.286 137.24 99.3456 137 98.5056 136.52C97.6656 136.027 96.999 135.353 96.5056 134.5C96.0123 133.647 95.7656 132.68 95.7656 131.6C95.7656 130.52 96.0056 129.56 96.4856 128.72C96.979 127.88 97.6456 127.213 98.4856 126.72C99.3256 126.227 100.272 125.98 101.326 125.98C102.366 125.98 103.306 126.227 104.146 126.72C104.986 127.2 105.646 127.86 106.126 128.7C106.619 129.54 106.866 130.507 106.866 131.6C106.866 132.693 106.612 133.667 106.106 134.52C105.599 135.36 104.926 136.027 104.086 136.52C103.259 137 102.339 137.24 101.326 137.24ZM101.326 135.44C101.992 135.44 102.592 135.273 103.126 134.94C103.672 134.607 104.099 134.147 104.406 133.56C104.726 132.973 104.886 132.32 104.886 131.6C104.886 130.867 104.726 130.22 104.406 129.66C104.099 129.087 103.672 128.633 103.126 128.3C102.592 127.953 101.992 127.78 101.326 127.78C100.646 127.78 100.032 127.953 99.4856 128.3C98.9523 128.633 98.5256 129.087 98.2056 129.66C97.8856 130.22 97.7256 130.867 97.7256 131.6C97.7256 132.32 97.8856 132.973 98.2056 133.56C98.5256 134.147 98.9523 134.607 99.4856 134.94C100.032 135.273 100.646 135.44 101.326 135.44ZM113.476 137.12C112.423 137.12 111.61 136.82 111.036 136.22C110.476 135.62 110.196 134.773 110.196 133.68V128H108.236V126.22H108.636C109.116 126.22 109.496 126.073 109.776 125.78C110.056 125.487 110.196 125.1 110.196 124.62V123.74H112.056V126.22H114.476V128H112.056V133.62C112.056 133.98 112.11 134.293 112.216 134.56C112.336 134.827 112.53 135.04 112.796 135.2C113.063 135.347 113.416 135.42 113.856 135.42C113.95 135.42 114.063 135.413 114.196 135.4C114.343 135.387 114.476 135.373 114.596 135.36V137C114.423 137.04 114.23 137.067 114.016 137.08C113.803 137.107 113.623 137.12 113.476 137.12ZM121.693 137.24C120.653 137.24 119.726 136.993 118.913 136.5C118.1 136.007 117.46 135.333 116.993 134.48C116.526 133.613 116.293 132.647 116.293 131.58C116.293 130.5 116.52 129.54 116.973 128.7C117.44 127.86 118.066 127.2 118.853 126.72C119.653 126.227 120.546 125.98 121.533 125.98C122.333 125.98 123.04 126.127 123.653 126.42C124.28 126.7 124.806 127.087 125.233 127.58C125.673 128.06 126.006 128.613 126.233 129.24C126.473 129.853 126.593 130.493 126.593 131.16C126.593 131.307 126.58 131.473 126.553 131.66C126.54 131.833 126.52 132 126.493 132.16H117.653V130.56H125.413L124.533 131.28C124.653 130.587 124.586 129.967 124.333 129.42C124.08 128.873 123.706 128.44 123.213 128.12C122.72 127.8 122.16 127.64 121.533 127.64C120.906 127.64 120.333 127.8 119.813 128.12C119.293 128.44 118.886 128.9 118.593 129.5C118.313 130.087 118.2 130.787 118.253 131.6C118.2 132.387 118.32 133.08 118.613 133.68C118.92 134.267 119.346 134.727 119.893 135.06C120.453 135.38 121.06 135.54 121.713 135.54C122.433 135.54 123.04 135.373 123.533 135.04C124.026 134.707 124.426 134.28 124.733 133.76L126.293 134.56C126.08 135.053 125.746 135.507 125.293 135.92C124.853 136.32 124.326 136.64 123.713 136.88C123.113 137.12 122.44 137.24 121.693 137.24ZM129.238 137V122.1H138.938V123.9H131.198V128.62H138.538V130.42H131.198V135.2H138.938V137H129.238ZM144.147 137L139.927 126.22H142.007L145.387 135.34H144.667L148.067 126.22H150.147L145.907 137H144.147ZM154.58 137.24C153.874 137.24 153.247 137.113 152.7 136.86C152.167 136.593 151.747 136.233 151.44 135.78C151.134 135.313 150.98 134.78 150.98 134.18C150.98 133.607 151.1 133.093 151.34 132.64C151.594 132.173 151.98 131.78 152.5 131.46C153.034 131.14 153.7 130.913 154.5 130.78L158.5 130.12V131.68L154.92 132.28C154.227 132.4 153.72 132.62 153.4 132.94C153.094 133.26 152.94 133.653 152.94 134.12C152.94 134.56 153.114 134.927 153.46 135.22C153.82 135.513 154.267 135.66 154.8 135.66C155.48 135.66 156.067 135.52 156.56 135.24C157.067 134.947 157.46 134.553 157.74 134.06C158.034 133.567 158.18 133.02 158.18 132.42V129.68C158.18 129.093 157.96 128.62 157.52 128.26C157.094 127.887 156.527 127.7 155.82 127.7C155.207 127.7 154.66 127.86 154.18 128.18C153.714 128.487 153.367 128.9 153.14 129.42L151.52 128.58C151.72 128.087 152.04 127.647 152.48 127.26C152.92 126.86 153.434 126.547 154.02 126.32C154.607 126.093 155.22 125.98 155.86 125.98C156.687 125.98 157.414 126.14 158.04 126.46C158.667 126.767 159.154 127.2 159.5 127.76C159.86 128.307 160.04 128.947 160.04 129.68V137H158.22V134.96L158.56 135.08C158.334 135.507 158.027 135.88 157.64 136.2C157.254 136.52 156.8 136.773 156.28 136.96C155.76 137.147 155.194 137.24 154.58 137.24ZM162.924 137V121.86H164.784V137H162.924ZM171.49 137.24C170.717 137.24 170.017 137.06 169.39 136.7C168.777 136.34 168.297 135.84 167.95 135.2C167.617 134.547 167.45 133.8 167.45 132.96V126.22H169.31V132.76C169.31 133.293 169.417 133.76 169.63 134.16C169.857 134.56 170.164 134.873 170.55 135.1C170.95 135.327 171.404 135.44 171.91 135.44C172.417 135.44 172.864 135.327 173.25 135.1C173.65 134.873 173.957 134.547 174.17 134.12C174.397 133.693 174.51 133.187 174.51 132.6V126.22H176.39V137H174.57V134.9L174.87 135.08C174.617 135.76 174.184 136.293 173.57 136.68C172.97 137.053 172.277 137.24 171.49 137.24ZM182.432 137.24C181.725 137.24 181.099 137.113 180.552 136.86C180.019 136.593 179.599 136.233 179.292 135.78C178.985 135.313 178.832 134.78 178.832 134.18C178.832 133.607 178.952 133.093 179.192 132.64C179.445 132.173 179.832 131.78 180.352 131.46C180.885 131.14 181.552 130.913 182.352 130.78L186.352 130.12V131.68L182.772 132.28C182.079 132.4 181.572 132.62 181.252 132.94C180.945 133.26 180.792 133.653 180.792 134.12C180.792 134.56 180.965 134.927 181.312 135.22C181.672 135.513 182.119 135.66 182.652 135.66C183.332 135.66 183.919 135.52 184.412 135.24C184.919 134.947 185.312 134.553 185.592 134.06C185.885 133.567 186.032 133.02 186.032 132.42V129.68C186.032 129.093 185.812 128.62 185.372 128.26C184.945 127.887 184.379 127.7 183.672 127.7C183.059 127.7 182.512 127.86 182.032 128.18C181.565 128.487 181.219 128.9 180.992 129.42L179.372 128.58C179.572 128.087 179.892 127.647 180.332 127.26C180.772 126.86 181.285 126.547 181.872 126.32C182.459 126.093 183.072 125.98 183.712 125.98C184.539 125.98 185.265 126.14 185.892 126.46C186.519 126.767 187.005 127.2 187.352 127.76C187.712 128.307 187.892 128.947 187.892 129.68V137H186.072V134.96L186.412 135.08C186.185 135.507 185.879 135.88 185.492 136.2C185.105 136.52 184.652 136.773 184.132 136.96C183.612 137.147 183.045 137.24 182.432 137.24ZM194.961 137.12C193.907 137.12 193.094 136.82 192.521 136.22C191.961 135.62 191.681 134.773 191.681 133.68V128H189.721V126.22H190.121C190.601 126.22 190.981 126.073 191.261 125.78C191.541 125.487 191.681 125.1 191.681 124.62V123.74H193.541V126.22H195.961V128H193.541V133.62C193.541 133.98 193.594 134.293 193.701 134.56C193.821 134.827 194.014 135.04 194.281 135.2C194.547 135.347 194.901 135.42 195.341 135.42C195.434 135.42 195.547 135.413 195.681 135.4C195.827 135.387 195.961 135.373 196.081 135.36V137C195.907 137.04 195.714 137.067 195.501 137.08C195.287 137.107 195.107 137.12 194.961 137.12ZM198.51 137V126.22H200.37V137H198.51ZM198.51 124.5V122.1H200.37V124.5H198.51ZM208.376 137.24C207.336 137.24 206.396 137 205.556 136.52C204.716 136.027 204.05 135.353 203.556 134.5C203.063 133.647 202.816 132.68 202.816 131.6C202.816 130.52 203.056 129.56 203.536 128.72C204.03 127.88 204.696 127.213 205.536 126.72C206.376 126.227 207.323 125.98 208.376 125.98C209.416 125.98 210.356 126.227 211.196 126.72C212.036 127.2 212.696 127.86 213.176 128.7C213.67 129.54 213.916 130.507 213.916 131.6C213.916 132.693 213.663 133.667 213.156 134.52C212.65 135.36 211.976 136.027 211.136 136.52C210.31 137 209.39 137.24 208.376 137.24ZM208.376 135.44C209.043 135.44 209.643 135.273 210.176 134.94C210.723 134.607 211.15 134.147 211.456 133.56C211.776 132.973 211.936 132.32 211.936 131.6C211.936 130.867 211.776 130.22 211.456 129.66C211.15 129.087 210.723 128.633 210.176 128.3C209.643 127.953 209.043 127.78 208.376 127.78C207.696 127.78 207.083 127.953 206.536 128.3C206.003 128.633 205.576 129.087 205.256 129.66C204.936 130.22 204.776 130.867 204.776 131.6C204.776 132.32 204.936 132.973 205.256 133.56C205.576 134.147 206.003 134.607 206.536 134.94C207.083 135.273 207.696 135.44 208.376 135.44ZM216.342 137V126.22H218.162V128.32L217.862 128.14C218.129 127.46 218.556 126.933 219.142 126.56C219.742 126.173 220.442 125.98 221.242 125.98C222.016 125.98 222.702 126.153 223.302 126.5C223.916 126.847 224.396 127.327 224.742 127.94C225.102 128.553 225.282 129.247 225.282 130.02V137H223.402V130.62C223.402 130.02 223.296 129.513 223.082 129.1C222.869 128.687 222.562 128.367 222.162 128.14C221.776 127.9 221.329 127.78 220.822 127.78C220.316 127.78 219.862 127.9 219.462 128.14C219.076 128.367 218.769 128.693 218.542 129.12C218.316 129.533 218.202 130.033 218.202 130.62V137H216.342ZM230.064 137V123.8H227.244V122.1H232.044V137H230.064ZM235.221 137V135.64L239.341 131.18C240.154 130.313 240.801 129.6 241.281 129.04C241.774 128.48 242.134 127.98 242.361 127.54C242.587 127.1 242.701 126.633 242.701 126.14C242.701 125.327 242.461 124.7 241.981 124.26C241.501 123.82 240.867 123.6 240.081 123.6C239.281 123.6 238.601 123.833 238.041 124.3C237.481 124.753 237.094 125.4 236.881 126.24L235.101 125.78C235.274 124.98 235.594 124.287 236.061 123.7C236.527 123.113 237.107 122.66 237.801 122.34C238.494 122.02 239.254 121.86 240.081 121.86C240.987 121.86 241.781 122.04 242.461 122.4C243.154 122.747 243.694 123.233 244.081 123.86C244.481 124.487 244.681 125.213 244.681 126.04C244.681 126.587 244.567 127.12 244.341 127.64C244.114 128.16 243.781 128.713 243.341 129.3C242.901 129.873 242.327 130.54 241.621 131.3L237.941 135.3H245.001V137H235.221ZM249.673 137V123.8H246.853V122.1H251.653V137H249.673ZM259.75 137.24C258.977 137.24 258.25 137.107 257.57 136.84C256.89 136.56 256.297 136.167 255.79 135.66C255.297 135.14 254.937 134.533 254.71 133.84L256.31 133.16C256.59 133.893 257.043 134.467 257.67 134.88C258.31 135.28 259.003 135.48 259.75 135.48C260.363 135.48 260.903 135.347 261.37 135.08C261.85 134.8 262.223 134.42 262.49 133.94C262.757 133.447 262.89 132.9 262.89 132.3C262.89 131.673 262.75 131.12 262.47 130.64C262.203 130.16 261.837 129.787 261.37 129.52C260.903 129.24 260.37 129.1 259.77 129.1C259.157 129.1 258.597 129.24 258.09 129.52C257.583 129.8 257.217 130.153 256.99 130.58L255.41 130.24L256.55 122.1H264.27V123.8H257.29L258.05 123.04L257.17 129.36L256.49 128.96C256.93 128.4 257.443 128 258.03 127.76C258.63 127.507 259.277 127.38 259.97 127.38C260.943 127.38 261.797 127.6 262.53 128.04C263.263 128.48 263.837 129.067 264.25 129.8C264.663 130.533 264.87 131.367 264.87 132.3C264.87 133.233 264.643 134.073 264.19 134.82C263.75 135.567 263.143 136.16 262.37 136.6C261.61 137.027 260.737 137.24 259.75 137.24ZM274.254 137V133.56H266.934V131.94L274.214 122.1H276.094V131.94H278.034V133.56H276.094V137H274.254ZM268.414 132.64L268.134 131.94H274.254V123.74L274.834 123.9L268.414 132.64ZM285.128 137.24C284.128 137.24 283.241 137.04 282.468 136.64C281.708 136.24 281.108 135.7 280.668 135.02C280.241 134.327 280.028 133.553 280.028 132.7C280.028 131.74 280.295 130.9 280.828 130.18C281.361 129.46 282.095 128.947 283.028 128.64L282.988 129.14C282.281 128.86 281.728 128.413 281.328 127.8C280.941 127.173 280.748 126.5 280.748 125.78C280.748 125.02 280.935 124.347 281.308 123.76C281.695 123.173 282.215 122.713 282.868 122.38C283.535 122.033 284.288 121.86 285.128 121.86C285.968 121.86 286.715 122.027 287.368 122.36C288.021 122.693 288.535 123.16 288.908 123.76C289.295 124.347 289.488 125.02 289.488 125.78C289.488 126.54 289.281 127.22 288.868 127.82C288.468 128.42 287.935 128.867 287.268 129.16L287.208 128.64C288.155 128.947 288.895 129.467 289.428 130.2C289.961 130.92 290.228 131.753 290.228 132.7C290.228 133.553 290.008 134.327 289.568 135.02C289.141 135.7 288.541 136.24 287.768 136.64C287.008 137.04 286.128 137.24 285.128 137.24ZM285.128 135.54C285.755 135.54 286.301 135.42 286.768 135.18C287.235 134.94 287.595 134.607 287.848 134.18C288.115 133.74 288.248 133.24 288.248 132.68C288.248 132.107 288.115 131.607 287.848 131.18C287.595 130.74 287.235 130.407 286.768 130.18C286.301 129.94 285.755 129.82 285.128 129.82C284.501 129.82 283.948 129.94 283.468 130.18C283.001 130.407 282.641 130.74 282.388 131.18C282.135 131.607 282.008 132.107 282.008 132.68C282.008 133.24 282.135 133.74 282.388 134.18C282.641 134.607 283.001 134.94 283.468 135.18C283.948 135.42 284.501 135.54 285.128 135.54ZM285.128 128.12C285.581 128.12 285.981 128.02 286.328 127.82C286.688 127.62 286.975 127.353 287.188 127.02C287.401 126.673 287.508 126.273 287.508 125.82C287.508 125.367 287.401 124.973 287.188 124.64C286.975 124.307 286.688 124.047 286.328 123.86C285.981 123.66 285.581 123.56 285.128 123.56C284.661 123.56 284.248 123.66 283.888 123.86C283.528 124.047 283.241 124.307 283.028 124.64C282.815 124.973 282.708 125.367 282.708 125.82C282.708 126.273 282.815 126.673 283.028 127.02C283.241 127.353 283.528 127.62 283.888 127.82C284.248 128.02 284.661 128.12 285.128 128.12ZM292.946 137L299.486 123.8H292.186V122.1H301.546V123.8L295.066 137H292.946ZM303.606 137V134.6H305.546V137H303.606ZM307.974 137L311.754 131.6L307.994 126.22H310.234L313.454 130.9H312.314L315.494 126.22H317.754L313.994 131.6L317.734 137H315.494L312.314 132.32H313.434L310.254 137H307.974ZM319.409 137V121.86H321.269V137H319.409ZM328.015 137.24C326.935 137.24 325.995 136.973 325.195 136.44C324.395 135.907 323.828 135.187 323.495 134.28L324.975 133.56C325.282 134.2 325.702 134.707 326.235 135.08C326.768 135.453 327.362 135.64 328.015 135.64C328.602 135.64 329.088 135.5 329.475 135.22C329.862 134.94 330.055 134.573 330.055 134.12C330.055 133.8 329.962 133.547 329.775 133.36C329.602 133.16 329.388 133.007 329.135 132.9C328.882 132.78 328.648 132.693 328.435 132.64L326.815 132.18C325.842 131.9 325.128 131.5 324.675 130.98C324.235 130.46 324.015 129.853 324.015 129.16C324.015 128.52 324.175 127.967 324.495 127.5C324.828 127.02 325.275 126.647 325.835 126.38C326.408 126.113 327.048 125.98 327.755 125.98C328.702 125.98 329.548 126.22 330.295 126.7C331.055 127.18 331.595 127.853 331.915 128.72L330.395 129.42C330.155 128.86 329.795 128.42 329.315 128.1C328.835 127.767 328.295 127.6 327.695 127.6C327.148 127.6 326.715 127.74 326.395 128.02C326.075 128.287 325.915 128.627 325.915 129.04C325.915 129.347 325.995 129.6 326.155 129.8C326.315 129.987 326.508 130.133 326.735 130.24C326.962 130.333 327.182 130.413 327.395 130.48L329.155 131C330.035 131.253 330.715 131.647 331.195 132.18C331.688 132.713 331.935 133.353 331.935 134.1C331.935 134.7 331.768 135.24 331.435 135.72C331.102 136.2 330.642 136.573 330.055 136.84C329.468 137.107 328.788 137.24 328.015 137.24ZM332.896 137L336.676 131.6L332.916 126.22H335.156L338.376 130.9H337.236L340.416 126.22H342.676L338.916 131.6L342.656 137H340.416L337.236 132.32H338.356L335.176 137H332.896Z" fill="black"/>
<defs>
<linearGradient id="paint0_linear_59_274" x1="18.4262" y1="113.839" x2="35.935" y2="144.161" gradientUnits="userSpaceOnUse">
<stop stop-color="#18884F"/>
<stop offset="0.5" stop-color="#117E43"/>
<stop offset="1" stop-color="#0B6631"/>
</linearGradient>
</defs>
</svg>
