<svg width="703" height="436" viewBox="0 0 703 436" fill="none" xmlns="http://www.w3.org/2000/svg">
<g clip-path="url(#clip0_59_205)">
<rect width="702.768" height="436" transform="translate(0.232178)" fill="white"/>
<path d="M25.5682 44.432C23.6722 44.432 21.9202 44.096 20.3122 43.424C18.7282 42.728 17.3362 41.756 16.1362 40.508C14.9602 39.26 14.0482 37.796 13.4002 36.116C12.7522 34.436 12.4282 32.6 12.4282 30.608C12.4282 28.592 12.7522 26.744 13.4002 25.064C14.0482 23.384 14.9602 21.92 16.1362 20.672C17.3122 19.424 18.7042 18.464 20.3122 17.792C21.9202 17.096 23.6722 16.748 25.5682 16.748C27.4162 16.748 29.0722 17.072 30.5362 17.72C32.0242 18.368 33.2722 19.208 34.2802 20.24C35.3122 21.272 36.0442 22.376 36.4762 23.552L33.2362 25.028C32.6122 23.54 31.6402 22.34 30.3202 21.428C29.0002 20.492 27.4162 20.024 25.5682 20.024C23.6962 20.024 22.0282 20.468 20.5642 21.356C19.1242 22.244 17.9962 23.48 17.1802 25.064C16.3642 26.648 15.9562 28.496 15.9562 30.608C15.9562 32.696 16.3642 34.532 17.1802 36.116C17.9962 37.7 19.1242 38.936 20.5642 39.824C22.0282 40.712 23.6962 41.156 25.5682 41.156C27.4162 41.156 29.0002 40.7 30.3202 39.788C31.6402 38.852 32.6122 37.64 33.2362 36.152L36.4762 37.628C36.0442 38.804 35.3122 39.908 34.2802 40.94C33.2722 41.972 32.0242 42.812 30.5362 43.46C29.0722 44.108 27.4162 44.432 25.5682 44.432ZM40.8789 44V16.748H44.2269V44H40.8789ZM55.1098 44.432C53.8378 44.432 52.7098 44.204 51.7258 43.748C50.7658 43.268 50.0098 42.62 49.4578 41.804C48.9058 40.964 48.6298 40.004 48.6298 38.924C48.6298 37.892 48.8458 36.968 49.2778 36.152C49.7338 35.312 50.4298 34.604 51.3658 34.028C52.3258 33.452 53.5258 33.044 54.9658 32.804L62.1658 31.616V34.424L55.7218 35.504C54.4738 35.72 53.5618 36.116 52.9858 36.692C52.4338 37.268 52.1578 37.976 52.1578 38.816C52.1578 39.608 52.4698 40.268 53.0938 40.796C53.7418 41.324 54.5458 41.588 55.5058 41.588C56.7298 41.588 57.7858 41.336 58.6738 40.832C59.5858 40.304 60.2938 39.596 60.7978 38.708C61.3258 37.82 61.5898 36.836 61.5898 35.756V30.824C61.5898 29.768 61.1938 28.916 60.4018 28.268C59.6338 27.596 58.6138 27.26 57.3418 27.26C56.2378 27.26 55.2538 27.548 54.3898 28.124C53.5498 28.676 52.9258 29.42 52.5178 30.356L49.6018 28.844C49.9618 27.956 50.5378 27.164 51.3298 26.468C52.1218 25.748 53.0458 25.184 54.1018 24.776C55.1578 24.368 56.2618 24.164 57.4138 24.164C58.9018 24.164 60.2098 24.452 61.3378 25.028C62.4658 25.58 63.3418 26.36 63.9658 27.368C64.6138 28.352 64.9378 29.504 64.9378 30.824V44H61.6618V40.328L62.2738 40.544C61.8658 41.312 61.3138 41.984 60.6178 42.56C59.9218 43.136 59.1058 43.592 58.1698 43.928C57.2338 44.264 56.2138 44.432 55.1098 44.432ZM77.0769 44.432C75.1329 44.432 73.4409 43.952 72.0009 42.992C70.5609 42.032 69.5409 40.736 68.9409 39.104L71.6049 37.808C72.1569 38.96 72.9129 39.872 73.8729 40.544C74.8329 41.216 75.9009 41.552 77.0769 41.552C78.1329 41.552 79.0089 41.3 79.7049 40.796C80.4009 40.292 80.7489 39.632 80.7489 38.816C80.7489 38.24 80.5809 37.784 80.2449 37.448C79.9329 37.088 79.5489 36.812 79.0929 36.62C78.6369 36.404 78.2169 36.248 77.8329 36.152L74.9169 35.324C73.1649 34.82 71.8809 34.1 71.0649 33.164C70.2729 32.228 69.8769 31.136 69.8769 29.888C69.8769 28.736 70.1649 27.74 70.7409 26.9C71.3409 26.036 72.1449 25.364 73.1529 24.884C74.1849 24.404 75.3369 24.164 76.6089 24.164C78.3129 24.164 79.8369 24.596 81.1809 25.46C82.5489 26.324 83.5209 27.536 84.0969 29.096L81.3609 30.356C80.9289 29.348 80.2809 28.556 79.4169 27.98C78.5529 27.38 77.5809 27.08 76.5009 27.08C75.5169 27.08 74.7369 27.332 74.1609 27.836C73.5849 28.316 73.2969 28.928 73.2969 29.672C73.2969 30.224 73.4409 30.68 73.7289 31.04C74.0169 31.376 74.3649 31.64 74.7729 31.832C75.1809 32 75.5769 32.144 75.9609 32.264L79.1289 33.2C80.7129 33.656 81.9369 34.364 82.8009 35.324C83.6889 36.284 84.1329 37.436 84.1329 38.78C84.1329 39.86 83.8329 40.832 83.2329 41.696C82.6329 42.56 81.8049 43.232 80.7489 43.712C79.6929 44.192 78.4689 44.432 77.0769 44.432ZM95.4636 44.432C93.5196 44.432 91.8276 43.952 90.3876 42.992C88.9476 42.032 87.9276 40.736 87.3276 39.104L89.9916 37.808C90.5436 38.96 91.2996 39.872 92.2596 40.544C93.2196 41.216 94.2876 41.552 95.4636 41.552C96.5196 41.552 97.3956 41.3 98.0916 40.796C98.7876 40.292 99.1356 39.632 99.1356 38.816C99.1356 38.24 98.9676 37.784 98.6316 37.448C98.3196 37.088 97.9356 36.812 97.4796 36.62C97.0236 36.404 96.6036 36.248 96.2196 36.152L93.3036 35.324C91.5516 34.82 90.2676 34.1 89.4516 33.164C88.6596 32.228 88.2636 31.136 88.2636 29.888C88.2636 28.736 88.5516 27.74 89.1276 26.9C89.7276 26.036 90.5316 25.364 91.5396 24.884C92.5716 24.404 93.7236 24.164 94.9956 24.164C96.6996 24.164 98.2236 24.596 99.5676 25.46C100.936 26.324 101.908 27.536 102.484 29.096L99.7476 30.356C99.3156 29.348 98.6676 28.556 97.8036 27.98C96.9396 27.38 95.9676 27.08 94.8876 27.08C93.9036 27.08 93.1236 27.332 92.5476 27.836C91.9716 28.316 91.6836 28.928 91.6836 29.672C91.6836 30.224 91.8276 30.68 92.1156 31.04C92.4036 31.376 92.7516 31.64 93.1596 31.832C93.5676 32 93.9636 32.144 94.3476 32.264L97.5156 33.2C99.0996 33.656 100.324 34.364 101.188 35.324C102.076 36.284 102.52 37.436 102.52 38.78C102.52 39.86 102.22 40.832 101.62 41.696C101.02 42.56 100.192 43.232 99.1356 43.712C98.0796 44.192 96.8556 44.432 95.4636 44.432Z" fill="black"/>
<path d="M320.149 32.5C320.149 25.6253 320.149 22.188 322.284 20.0523C324.42 17.9167 327.857 17.9167 334.732 17.9167C341.607 17.9167 345.044 17.9167 347.18 20.0523C349.315 22.188 349.315 25.6253 349.315 32.5C349.315 39.3746 349.315 42.812 347.18 44.9476C345.044 47.0833 341.607 47.0833 334.732 47.0833C327.857 47.0833 324.42 47.0833 322.284 44.9476C320.149 42.812 320.149 39.3746 320.149 32.5Z" stroke="#0D71F5" stroke-width="2"/>
<path d="M339.107 32.5H334.732M334.732 32.5H330.357M334.732 32.5V28.125M334.732 32.5V36.875" stroke="#0D71F5" stroke-width="2" stroke-linecap="round"/>
<path d="M10.4962 123L16.9042 105.12H19.6882L26.0962 123H23.5762L22.1122 118.8H14.4802L13.0162 123H10.4962ZM15.2242 116.64H21.3682L17.9602 106.824H18.6322L15.2242 116.64ZM28.0852 123V110.064H30.2692V112.44L30.0292 112.104C30.3332 111.368 30.7972 110.824 31.4212 110.472C32.0452 110.104 32.8052 109.92 33.7012 109.92H34.4932V112.032H33.3652C32.4532 112.032 31.7172 112.32 31.1572 112.896C30.5972 113.456 30.3172 114.256 30.3172 115.296V123H28.0852ZM42.4758 123.288C41.2118 123.288 40.0838 122.992 39.0918 122.4C38.1158 121.808 37.3478 121 36.7878 119.976C36.2278 118.952 35.9478 117.8 35.9478 116.52C35.9478 115.224 36.2278 114.072 36.7878 113.064C37.3478 112.056 38.1158 111.256 39.0918 110.664C40.0838 110.072 41.2118 109.776 42.4758 109.776C43.3238 109.776 44.1158 109.928 44.8518 110.232C45.5878 110.536 46.2358 110.944 46.7958 111.456C47.3558 111.968 47.7638 112.568 48.0198 113.256L46.0278 114.216C45.7238 113.544 45.2598 113 44.6358 112.584C44.0118 112.152 43.2918 111.936 42.4758 111.936C41.6918 111.936 40.9798 112.136 40.3398 112.536C39.7158 112.936 39.2198 113.48 38.8518 114.168C38.4838 114.856 38.2998 115.648 38.2998 116.544C38.2998 117.408 38.4838 118.192 38.8518 118.896C39.2198 119.584 39.7158 120.128 40.3398 120.528C40.9798 120.928 41.6918 121.128 42.4758 121.128C43.2918 121.128 44.0118 120.92 44.6358 120.504C45.2598 120.072 45.7238 119.504 46.0278 118.8L48.0198 119.808C47.7638 120.48 47.3558 121.08 46.7958 121.608C46.2358 122.12 45.5878 122.528 44.8518 122.832C44.1158 123.136 43.3238 123.288 42.4758 123.288ZM50.9367 123V104.832H53.1687V112.584L52.7607 112.368C53.0807 111.552 53.5927 110.92 54.2967 110.472C55.0167 110.008 55.8567 109.776 56.8167 109.776C57.7447 109.776 58.5687 109.984 59.2887 110.4C60.0247 110.816 60.6007 111.392 61.0167 112.128C61.4487 112.864 61.6647 113.696 61.6647 114.624V123H59.4087V115.344C59.4087 114.624 59.2727 114.016 59.0007 113.52C58.7447 113.024 58.3847 112.64 57.9207 112.368C57.4567 112.08 56.9207 111.936 56.3127 111.936C55.7207 111.936 55.1847 112.08 54.7047 112.368C54.2247 112.64 53.8487 113.032 53.5767 113.544C53.3047 114.04 53.1687 114.64 53.1687 115.344V123H50.9367ZM64.8586 123V110.064H67.0906V123H64.8586ZM64.8586 108V105.12H67.0906V108H64.8586ZM75.8099 123.144C74.5459 123.144 73.5699 122.784 72.8819 122.064C72.2099 121.344 71.8739 120.328 71.8739 119.016V112.2H69.5219V110.064H70.0019C70.5779 110.064 71.0339 109.888 71.3699 109.536C71.7059 109.184 71.8739 108.72 71.8739 108.144V107.088H74.1059V110.064H77.0099V112.2H74.1059V118.944C74.1059 119.376 74.1699 119.752 74.2979 120.072C74.4419 120.392 74.6739 120.648 74.9939 120.84C75.3139 121.016 75.7379 121.104 76.2659 121.104C76.3779 121.104 76.5139 121.096 76.6739 121.08C76.8499 121.064 77.0099 121.048 77.1539 121.032V123C76.9459 123.048 76.7139 123.08 76.4579 123.096C76.2019 123.128 75.9859 123.144 75.8099 123.144ZM85.67 123.288C84.422 123.288 83.31 122.992 82.334 122.4C81.358 121.808 80.59 121 80.03 119.976C79.47 118.936 79.19 117.776 79.19 116.496C79.19 115.2 79.462 114.048 80.006 113.04C80.566 112.032 81.318 111.24 82.262 110.664C83.222 110.072 84.294 109.776 85.478 109.776C86.438 109.776 87.286 109.952 88.022 110.304C88.774 110.64 89.406 111.104 89.918 111.696C90.446 112.272 90.846 112.936 91.118 113.688C91.406 114.424 91.55 115.192 91.55 115.992C91.55 116.168 91.534 116.368 91.502 116.592C91.486 116.8 91.462 117 91.43 117.192H80.822V115.272H90.134L89.078 116.136C89.222 115.304 89.142 114.56 88.838 113.904C88.534 113.248 88.086 112.728 87.494 112.344C86.902 111.96 86.23 111.768 85.478 111.768C84.726 111.768 84.038 111.96 83.414 112.344C82.79 112.728 82.302 113.28 81.95 114C81.614 114.704 81.478 115.544 81.542 116.52C81.478 117.464 81.622 118.296 81.974 119.016C82.342 119.72 82.854 120.272 83.51 120.672C84.182 121.056 84.91 121.248 85.694 121.248C86.558 121.248 87.286 121.048 87.878 120.648C88.47 120.248 88.95 119.736 89.318 119.112L91.19 120.072C90.934 120.664 90.534 121.208 89.99 121.704C89.462 122.184 88.83 122.568 88.094 122.856C87.374 123.144 86.566 123.288 85.67 123.288ZM100.46 123.288C99.1962 123.288 98.0682 122.992 97.0762 122.4C96.1002 121.808 95.3322 121 94.7722 119.976C94.2122 118.952 93.9322 117.8 93.9322 116.52C93.9322 115.224 94.2122 114.072 94.7722 113.064C95.3322 112.056 96.1002 111.256 97.0762 110.664C98.0682 110.072 99.1962 109.776 100.46 109.776C101.308 109.776 102.1 109.928 102.836 110.232C103.572 110.536 104.22 110.944 104.78 111.456C105.34 111.968 105.748 112.568 106.004 113.256L104.012 114.216C103.708 113.544 103.244 113 102.62 112.584C101.996 112.152 101.276 111.936 100.46 111.936C99.6762 111.936 98.9642 112.136 98.3242 112.536C97.7002 112.936 97.2042 113.48 96.8362 114.168C96.4682 114.856 96.2842 115.648 96.2842 116.544C96.2842 117.408 96.4682 118.192 96.8362 118.896C97.2042 119.584 97.7002 120.128 98.3242 120.528C98.9642 120.928 99.6762 121.128 100.46 121.128C101.276 121.128 101.996 120.92 102.62 120.504C103.244 120.072 103.708 119.504 104.012 118.8L106.004 119.808C105.748 120.48 105.34 121.08 104.78 121.608C104.22 122.12 103.572 122.528 102.836 122.832C102.1 123.136 101.308 123.288 100.46 123.288ZM114.177 123.144C112.913 123.144 111.937 122.784 111.249 122.064C110.577 121.344 110.241 120.328 110.241 119.016V112.2H107.889V110.064H108.369C108.945 110.064 109.401 109.888 109.737 109.536C110.073 109.184 110.241 108.72 110.241 108.144V107.088H112.473V110.064H115.377V112.2H112.473V118.944C112.473 119.376 112.537 119.752 112.665 120.072C112.809 120.392 113.041 120.648 113.361 120.84C113.681 121.016 114.105 121.104 114.633 121.104C114.745 121.104 114.881 121.096 115.041 121.08C115.217 121.064 115.377 121.048 115.521 121.032V123C115.313 123.048 115.081 123.08 114.825 123.096C114.569 123.128 114.353 123.144 114.177 123.144ZM123.021 123.288C122.093 123.288 121.253 123.072 120.501 122.64C119.765 122.208 119.189 121.608 118.773 120.84C118.373 120.056 118.173 119.16 118.173 118.152V110.064H120.405V117.912C120.405 118.552 120.533 119.112 120.789 119.592C121.061 120.072 121.429 120.448 121.893 120.72C122.373 120.992 122.917 121.128 123.525 121.128C124.133 121.128 124.669 120.992 125.133 120.72C125.613 120.448 125.981 120.056 126.237 119.544C126.509 119.032 126.645 118.424 126.645 117.72V110.064H128.901V123H126.717V120.48L127.077 120.696C126.773 121.512 126.253 122.152 125.517 122.616C124.797 123.064 123.965 123.288 123.021 123.288ZM132.359 123V110.064H134.543V112.44L134.303 112.104C134.607 111.368 135.071 110.824 135.695 110.472C136.319 110.104 137.079 109.92 137.975 109.92H138.767V112.032H137.639C136.727 112.032 135.991 112.32 135.431 112.896C134.871 113.456 134.591 114.256 134.591 115.296V123H132.359ZM146.701 123.288C145.453 123.288 144.341 122.992 143.365 122.4C142.389 121.808 141.621 121 141.061 119.976C140.501 118.936 140.221 117.776 140.221 116.496C140.221 115.2 140.493 114.048 141.037 113.04C141.597 112.032 142.349 111.24 143.293 110.664C144.253 110.072 145.325 109.776 146.509 109.776C147.469 109.776 148.317 109.952 149.053 110.304C149.805 110.64 150.437 111.104 150.949 111.696C151.477 112.272 151.877 112.936 152.149 113.688C152.437 114.424 152.581 115.192 152.581 115.992C152.581 116.168 152.565 116.368 152.533 116.592C152.517 116.8 152.493 117 152.461 117.192H141.853V115.272H151.165L150.109 116.136C150.253 115.304 150.173 114.56 149.869 113.904C149.565 113.248 149.117 112.728 148.525 112.344C147.933 111.96 147.261 111.768 146.509 111.768C145.757 111.768 145.069 111.96 144.445 112.344C143.821 112.728 143.333 113.28 142.981 114C142.645 114.704 142.509 115.544 142.573 116.52C142.509 117.464 142.653 118.296 143.005 119.016C143.373 119.72 143.885 120.272 144.541 120.672C145.213 121.056 145.941 121.248 146.725 121.248C147.589 121.248 148.317 121.048 148.909 120.648C149.501 120.248 149.981 119.736 150.349 119.112L152.221 120.072C151.965 120.664 151.565 121.208 151.021 121.704C150.493 122.184 149.861 122.568 149.125 122.856C148.405 123.144 147.597 123.288 146.701 123.288Z" fill="#696D75"/>
<g clip-path="url(#clip1_59_205)">
<path d="M180.232 101V125H204.232V101H180.232Z" fill="white"/>
<path d="M189.732 108L194.732 113L189.732 118" stroke="#696D75" stroke-width="2.5" stroke-linecap="round" stroke-linejoin="round"/>
</g>
<path d="M15.3442 200V184.28H10.4962V182.12H22.4962V184.28H17.7202V200H15.3442ZM24.4992 200V181.832H26.7312V189.584L26.3232 189.368C26.6432 188.552 27.1552 187.92 27.8592 187.472C28.5792 187.008 29.4192 186.776 30.3792 186.776C31.3072 186.776 32.1312 186.984 32.8512 187.4C33.5872 187.816 34.1632 188.392 34.5792 189.128C35.0112 189.864 35.2272 190.696 35.2272 191.624V200H32.9712V192.344C32.9712 191.624 32.8352 191.016 32.5632 190.52C32.3072 190.024 31.9472 189.64 31.4832 189.368C31.0192 189.08 30.4832 188.936 29.8752 188.936C29.2832 188.936 28.7472 189.08 28.2672 189.368C27.7872 189.64 27.4112 190.032 27.1392 190.544C26.8672 191.04 26.7312 191.64 26.7312 192.344V200H24.4992ZM44.3731 200.288C43.1251 200.288 42.0131 199.992 41.0371 199.4C40.0611 198.808 39.2931 198 38.7331 196.976C38.1731 195.936 37.8931 194.776 37.8931 193.496C37.8931 192.2 38.1651 191.048 38.7091 190.04C39.2691 189.032 40.0211 188.24 40.9651 187.664C41.9251 187.072 42.9971 186.776 44.1811 186.776C45.1411 186.776 45.9891 186.952 46.7251 187.304C47.4771 187.64 48.1091 188.104 48.6211 188.696C49.1491 189.272 49.5491 189.936 49.8211 190.688C50.1091 191.424 50.2531 192.192 50.2531 192.992C50.2531 193.168 50.2371 193.368 50.2051 193.592C50.1891 193.8 50.1651 194 50.1331 194.192H39.5251V192.272H48.8371L47.7811 193.136C47.9251 192.304 47.8451 191.56 47.5411 190.904C47.2371 190.248 46.7891 189.728 46.1971 189.344C45.6051 188.96 44.9331 188.768 44.1811 188.768C43.4291 188.768 42.7411 188.96 42.1171 189.344C41.4931 189.728 41.0051 190.28 40.6531 191C40.3171 191.704 40.1811 192.544 40.2451 193.52C40.1811 194.464 40.3251 195.296 40.6771 196.016C41.0451 196.72 41.5571 197.272 42.2131 197.672C42.8851 198.056 43.6131 198.248 44.3971 198.248C45.2611 198.248 45.9891 198.048 46.5811 197.648C47.1731 197.248 47.6531 196.736 48.0211 196.112L49.8931 197.072C49.6371 197.664 49.2371 198.208 48.6931 198.704C48.1651 199.184 47.5331 199.568 46.7971 199.856C46.0771 200.144 45.2691 200.288 44.3731 200.288ZM59.3073 200.288C58.0593 200.288 56.9313 200 55.9233 199.424C54.9153 198.832 54.1153 198.024 53.5233 197C52.9313 195.976 52.6353 194.816 52.6353 193.52C52.6353 192.224 52.9233 191.072 53.4993 190.064C54.0913 189.056 54.8913 188.256 55.8993 187.664C56.9073 187.072 58.0433 186.776 59.3073 186.776C60.5553 186.776 61.6833 187.072 62.6913 187.664C63.6993 188.24 64.4913 189.032 65.0673 190.04C65.6593 191.048 65.9553 192.208 65.9553 193.52C65.9553 194.832 65.6513 196 65.0433 197.024C64.4353 198.032 63.6273 198.832 62.6193 199.424C61.6273 200 60.5233 200.288 59.3073 200.288ZM59.3073 198.128C60.1073 198.128 60.8273 197.928 61.4673 197.528C62.1233 197.128 62.6353 196.576 63.0033 195.872C63.3873 195.168 63.5793 194.384 63.5793 193.52C63.5793 192.64 63.3873 191.864 63.0033 191.192C62.6353 190.504 62.1233 189.96 61.4673 189.56C60.8273 189.144 60.1073 188.936 59.3073 188.936C58.4913 188.936 57.7553 189.144 57.0993 189.56C56.4593 189.96 55.9473 190.504 55.5633 191.192C55.1793 191.864 54.9873 192.64 54.9873 193.52C54.9873 194.384 55.1793 195.168 55.5633 195.872C55.9473 196.576 56.4593 197.128 57.0993 197.528C57.7553 197.928 58.4913 198.128 59.3073 198.128ZM68.8664 200V187.064H71.0504V189.44L70.8104 189.104C71.1144 188.368 71.5784 187.824 72.2024 187.472C72.8264 187.104 73.5864 186.92 74.4824 186.92H75.2744V189.032H74.1464C73.2344 189.032 72.4984 189.32 71.9384 189.896C71.3784 190.456 71.0984 191.256 71.0984 192.296V200H68.8664ZM77.9531 205.28C77.6651 205.28 77.3771 205.256 77.0891 205.208C76.8011 205.176 76.5291 205.104 76.2731 204.992V203C76.4491 203.016 76.6651 203.048 76.9211 203.096C77.1931 203.144 77.4571 203.168 77.7131 203.168C78.4651 203.168 79.0331 203 79.4171 202.664C79.8171 202.328 80.1931 201.76 80.5451 200.96L81.3611 199.016L81.3131 200.96L75.7931 187.064H78.2171L82.5131 198.104H81.7931L86.0651 187.064H88.5371L82.7051 201.536C82.4331 202.224 82.0811 202.856 81.6491 203.432C81.2331 204.008 80.7211 204.456 80.1131 204.776C79.5051 205.112 78.7851 205.28 77.9531 205.28ZM100.815 200.288C99.5671 200.288 98.4391 200 97.4311 199.424C96.4231 198.832 95.6231 198.024 95.0311 197C94.4391 195.976 94.1431 194.816 94.1431 193.52C94.1431 192.224 94.4311 191.072 95.0071 190.064C95.5991 189.056 96.3991 188.256 97.4071 187.664C98.4151 187.072 99.5511 186.776 100.815 186.776C102.063 186.776 103.191 187.072 104.199 187.664C105.207 188.24 105.999 189.032 106.575 190.04C107.167 191.048 107.463 192.208 107.463 193.52C107.463 194.832 107.159 196 106.551 197.024C105.943 198.032 105.135 198.832 104.127 199.424C103.135 200 102.031 200.288 100.815 200.288ZM100.815 198.128C101.615 198.128 102.335 197.928 102.975 197.528C103.631 197.128 104.143 196.576 104.511 195.872C104.895 195.168 105.087 194.384 105.087 193.52C105.087 192.64 104.895 191.864 104.511 191.192C104.143 190.504 103.631 189.96 102.975 189.56C102.335 189.144 101.615 188.936 100.815 188.936C99.9991 188.936 99.2631 189.144 98.6071 189.56C97.9671 189.96 97.4551 190.504 97.0711 191.192C96.6871 191.864 96.4951 192.64 96.4951 193.52C96.4951 194.384 96.6871 195.168 97.0711 195.872C97.4551 196.576 97.9671 197.128 98.6071 197.528C99.2631 197.928 99.9991 198.128 100.815 198.128ZM111.344 200V189.2H108.872V187.064H111.344V186.152C111.344 185.224 111.544 184.44 111.944 183.8C112.36 183.16 112.904 182.672 113.576 182.336C114.264 182 115.024 181.832 115.856 181.832C116.032 181.832 116.224 181.848 116.432 181.88C116.656 181.896 116.84 181.92 116.984 181.952V183.944C116.856 183.912 116.704 183.896 116.528 183.896C116.352 183.88 116.216 183.872 116.12 183.872C115.384 183.872 114.776 184.048 114.296 184.4C113.832 184.752 113.6 185.336 113.6 186.152V187.064H116.672V189.2H113.6V200H111.344ZM123.663 200V181.832H125.895V200H123.663ZM133.151 200.288C132.303 200.288 131.551 200.136 130.895 199.832C130.255 199.512 129.751 199.08 129.383 198.536C129.015 197.976 128.831 197.336 128.831 196.616C128.831 195.928 128.975 195.312 129.263 194.768C129.567 194.208 130.031 193.736 130.655 193.352C131.295 192.968 132.095 192.696 133.055 192.536L137.855 191.744V193.616L133.559 194.336C132.727 194.48 132.119 194.744 131.735 195.128C131.367 195.512 131.183 195.984 131.183 196.544C131.183 197.072 131.391 197.512 131.807 197.864C132.239 198.216 132.775 198.392 133.415 198.392C134.231 198.392 134.935 198.224 135.527 197.888C136.135 197.536 136.607 197.064 136.943 196.472C137.295 195.88 137.471 195.224 137.471 194.504V191.216C137.471 190.512 137.207 189.944 136.679 189.512C136.167 189.064 135.487 188.84 134.639 188.84C133.903 188.84 133.247 189.032 132.671 189.416C132.111 189.784 131.695 190.28 131.423 190.904L129.479 189.896C129.719 189.304 130.103 188.776 130.631 188.312C131.159 187.832 131.775 187.456 132.479 187.184C133.183 186.912 133.919 186.776 134.687 186.776C135.679 186.776 136.551 186.968 137.303 187.352C138.055 187.72 138.639 188.24 139.055 188.912C139.487 189.568 139.703 190.336 139.703 191.216V200H137.519V197.552L137.927 197.696C137.655 198.208 137.287 198.656 136.823 199.04C136.359 199.424 135.815 199.728 135.191 199.952C134.567 200.176 133.887 200.288 133.151 200.288ZM143.163 200V187.064H145.347V189.584L144.987 189.368C145.307 188.552 145.819 187.92 146.523 187.472C147.243 187.008 148.083 186.776 149.043 186.776C149.971 186.776 150.795 186.984 151.515 187.4C152.251 187.816 152.827 188.392 153.243 189.128C153.675 189.864 153.891 190.696 153.891 191.624V200H151.635V192.344C151.635 191.624 151.507 191.016 151.251 190.52C150.995 190.024 150.627 189.64 150.147 189.368C149.683 189.08 149.147 188.936 148.539 188.936C147.931 188.936 147.387 189.08 146.907 189.368C146.443 189.64 146.075 190.032 145.803 190.544C145.531 191.04 145.395 191.64 145.395 192.344V200H143.163ZM163.253 205.28C162.341 205.28 161.493 205.136 160.709 204.848C159.941 204.56 159.277 204.16 158.717 203.648C158.173 203.152 157.757 202.568 157.469 201.896L159.557 200.936C159.781 201.544 160.205 202.056 160.829 202.472C161.469 202.904 162.269 203.12 163.229 203.12C163.965 203.12 164.629 202.976 165.221 202.688C165.829 202.416 166.309 202 166.661 201.44C167.013 200.896 167.189 200.232 167.189 199.448V196.544L167.597 196.976C167.149 197.856 166.501 198.528 165.653 198.992C164.821 199.456 163.901 199.688 162.893 199.688C161.677 199.688 160.589 199.408 159.629 198.848C158.669 198.272 157.917 197.496 157.373 196.52C156.829 195.528 156.557 194.432 156.557 193.232C156.557 192.016 156.829 190.92 157.373 189.944C157.917 188.968 158.661 188.2 159.605 187.64C160.565 187.064 161.653 186.776 162.869 186.776C163.877 186.776 164.789 187.008 165.605 187.472C166.437 187.92 167.101 188.544 167.597 189.344L167.261 189.944V187.064H169.445V199.448C169.445 200.568 169.181 201.568 168.653 202.448C168.125 203.328 167.389 204.016 166.445 204.512C165.517 205.024 164.453 205.28 163.253 205.28ZM163.085 197.528C163.853 197.528 164.541 197.336 165.149 196.952C165.773 196.568 166.269 196.056 166.637 195.416C167.005 194.76 167.189 194.032 167.189 193.232C167.189 192.448 167.005 191.728 166.637 191.072C166.269 190.416 165.773 189.896 165.149 189.512C164.541 189.128 163.853 188.936 163.085 188.936C162.301 188.936 161.589 189.128 160.949 189.512C160.309 189.896 159.805 190.416 159.437 191.072C159.085 191.712 158.909 192.432 158.909 193.232C158.909 194.032 159.085 194.76 159.437 195.416C159.805 196.056 160.301 196.568 160.925 196.952C161.565 197.336 162.285 197.528 163.085 197.528ZM177.489 200.288C176.561 200.288 175.721 200.072 174.969 199.64C174.233 199.208 173.657 198.608 173.241 197.84C172.841 197.056 172.641 196.16 172.641 195.152V187.064H174.873V194.912C174.873 195.552 175.001 196.112 175.257 196.592C175.529 197.072 175.897 197.448 176.361 197.72C176.841 197.992 177.385 198.128 177.993 198.128C178.601 198.128 179.137 197.992 179.601 197.72C180.081 197.448 180.449 197.056 180.705 196.544C180.977 196.032 181.113 195.424 181.113 194.72V187.064H183.369V200H181.185V197.48L181.545 197.696C181.241 198.512 180.721 199.152 179.985 199.616C179.265 200.064 178.433 200.288 177.489 200.288ZM190.619 200.288C189.771 200.288 189.019 200.136 188.363 199.832C187.723 199.512 187.219 199.08 186.851 198.536C186.483 197.976 186.299 197.336 186.299 196.616C186.299 195.928 186.443 195.312 186.731 194.768C187.035 194.208 187.499 193.736 188.123 193.352C188.763 192.968 189.563 192.696 190.523 192.536L195.323 191.744V193.616L191.027 194.336C190.195 194.48 189.587 194.744 189.203 195.128C188.835 195.512 188.651 195.984 188.651 196.544C188.651 197.072 188.859 197.512 189.275 197.864C189.707 198.216 190.243 198.392 190.883 198.392C191.699 198.392 192.403 198.224 192.995 197.888C193.603 197.536 194.075 197.064 194.411 196.472C194.763 195.88 194.939 195.224 194.939 194.504V191.216C194.939 190.512 194.675 189.944 194.147 189.512C193.635 189.064 192.955 188.84 192.107 188.84C191.371 188.84 190.715 189.032 190.139 189.416C189.579 189.784 189.163 190.28 188.891 190.904L186.947 189.896C187.187 189.304 187.571 188.776 188.099 188.312C188.627 187.832 189.243 187.456 189.947 187.184C190.651 186.912 191.387 186.776 192.155 186.776C193.147 186.776 194.019 186.968 194.771 187.352C195.523 187.72 196.107 188.24 196.523 188.912C196.955 189.568 197.171 190.336 197.171 191.216V200H194.987V197.552L195.395 197.696C195.123 198.208 194.755 198.656 194.291 199.04C193.827 199.424 193.283 199.728 192.659 199.952C192.035 200.176 191.355 200.288 190.619 200.288ZM206.8 205.28C205.888 205.28 205.04 205.136 204.256 204.848C203.488 204.56 202.824 204.16 202.264 203.648C201.72 203.152 201.304 202.568 201.016 201.896L203.104 200.936C203.328 201.544 203.752 202.056 204.376 202.472C205.016 202.904 205.816 203.12 206.776 203.12C207.512 203.12 208.176 202.976 208.768 202.688C209.376 202.416 209.856 202 210.208 201.44C210.56 200.896 210.736 200.232 210.736 199.448V196.544L211.144 196.976C210.696 197.856 210.048 198.528 209.2 198.992C208.368 199.456 207.448 199.688 206.44 199.688C205.224 199.688 204.136 199.408 203.176 198.848C202.216 198.272 201.464 197.496 200.92 196.52C200.376 195.528 200.104 194.432 200.104 193.232C200.104 192.016 200.376 190.92 200.92 189.944C201.464 188.968 202.208 188.2 203.152 187.64C204.112 187.064 205.2 186.776 206.416 186.776C207.424 186.776 208.336 187.008 209.152 187.472C209.984 187.92 210.648 188.544 211.144 189.344L210.808 189.944V187.064H212.992V199.448C212.992 200.568 212.728 201.568 212.2 202.448C211.672 203.328 210.936 204.016 209.992 204.512C209.064 205.024 208 205.28 206.8 205.28ZM206.632 197.528C207.4 197.528 208.088 197.336 208.696 196.952C209.32 196.568 209.816 196.056 210.184 195.416C210.552 194.76 210.736 194.032 210.736 193.232C210.736 192.448 210.552 191.728 210.184 191.072C209.816 190.416 209.32 189.896 208.696 189.512C208.088 189.128 207.4 188.936 206.632 188.936C205.848 188.936 205.136 189.128 204.496 189.512C203.856 189.896 203.352 190.416 202.984 191.072C202.632 191.712 202.456 192.432 202.456 193.232C202.456 194.032 202.632 194.76 202.984 195.416C203.352 196.056 203.848 196.568 204.472 196.952C205.112 197.336 205.832 197.528 206.632 197.528ZM222.404 200.288C221.156 200.288 220.044 199.992 219.068 199.4C218.092 198.808 217.324 198 216.764 196.976C216.204 195.936 215.924 194.776 215.924 193.496C215.924 192.2 216.196 191.048 216.74 190.04C217.3 189.032 218.052 188.24 218.996 187.664C219.956 187.072 221.028 186.776 222.212 186.776C223.172 186.776 224.02 186.952 224.756 187.304C225.508 187.64 226.14 188.104 226.652 188.696C227.18 189.272 227.58 189.936 227.852 190.688C228.14 191.424 228.284 192.192 228.284 192.992C228.284 193.168 228.268 193.368 228.236 193.592C228.22 193.8 228.196 194 228.164 194.192H217.556V192.272H226.868L225.812 193.136C225.956 192.304 225.876 191.56 225.572 190.904C225.268 190.248 224.82 189.728 224.228 189.344C223.636 188.96 222.964 188.768 222.212 188.768C221.46 188.768 220.772 188.96 220.148 189.344C219.524 189.728 219.036 190.28 218.684 191C218.348 191.704 218.212 192.544 218.276 193.52C218.212 194.464 218.356 195.296 218.708 196.016C219.076 196.72 219.588 197.272 220.244 197.672C220.916 198.056 221.644 198.248 222.428 198.248C223.292 198.248 224.02 198.048 224.612 197.648C225.204 197.248 225.684 196.736 226.052 196.112L227.924 197.072C227.668 197.664 227.268 198.208 226.724 198.704C226.196 199.184 225.564 199.568 224.828 199.856C224.108 200.144 223.3 200.288 222.404 200.288Z" fill="#696D75"/>
<g clip-path="url(#clip2_59_205)">
<path d="M256.232 178V202H280.232V178H256.232Z" fill="white"/>
<path d="M265.732 185L270.732 190L265.732 195" stroke="#696D75" stroke-width="2.5" stroke-linecap="round" stroke-linejoin="round"/>
</g>
<rect width="352" height="48" transform="translate(10.2322 253)" fill="#E3EBFA"/>
<path d="M17.2242 287V269.12H28.8642V271.28H19.5762V276.944H28.3842V279.104H19.5762V284.84H28.8642V287H17.2242ZM31.5149 287V274.064H33.6989V276.584L33.3389 276.368C33.6589 275.552 34.1709 274.92 34.8749 274.472C35.5949 274.008 36.4349 273.776 37.3949 273.776C38.3229 273.776 39.1469 273.984 39.8669 274.4C40.6029 274.816 41.1789 275.392 41.5949 276.128C42.0269 276.864 42.2429 277.696 42.2429 278.624V287H39.9869V279.344C39.9869 278.624 39.8589 278.016 39.6029 277.52C39.3469 277.024 38.9789 276.64 38.4989 276.368C38.0349 276.08 37.4989 275.936 36.8909 275.936C36.2829 275.936 35.7389 276.08 35.2589 276.368C34.7949 276.64 34.4269 277.032 34.1549 277.544C33.8829 278.04 33.7469 278.64 33.7469 279.344V287H31.5149ZM51.6047 292.28C50.6927 292.28 49.8447 292.136 49.0607 291.848C48.2927 291.56 47.6287 291.16 47.0687 290.648C46.5247 290.152 46.1087 289.568 45.8207 288.896L47.9087 287.936C48.1327 288.544 48.5567 289.056 49.1807 289.472C49.8207 289.904 50.6207 290.12 51.5807 290.12C52.3167 290.12 52.9807 289.976 53.5727 289.688C54.1807 289.416 54.6607 289 55.0127 288.44C55.3647 287.896 55.5407 287.232 55.5407 286.448V283.544L55.9487 283.976C55.5007 284.856 54.8527 285.528 54.0047 285.992C53.1727 286.456 52.2527 286.688 51.2447 286.688C50.0287 286.688 48.9407 286.408 47.9807 285.848C47.0207 285.272 46.2687 284.496 45.7247 283.52C45.1807 282.528 44.9087 281.432 44.9087 280.232C44.9087 279.016 45.1807 277.92 45.7247 276.944C46.2687 275.968 47.0127 275.2 47.9567 274.64C48.9167 274.064 50.0047 273.776 51.2207 273.776C52.2287 273.776 53.1407 274.008 53.9567 274.472C54.7887 274.92 55.4527 275.544 55.9487 276.344L55.6127 276.944V274.064H57.7967V286.448C57.7967 287.568 57.5327 288.568 57.0047 289.448C56.4767 290.328 55.7407 291.016 54.7967 291.512C53.8687 292.024 52.8047 292.28 51.6047 292.28ZM51.4367 284.528C52.2047 284.528 52.8927 284.336 53.5007 283.952C54.1247 283.568 54.6207 283.056 54.9887 282.416C55.3567 281.76 55.5407 281.032 55.5407 280.232C55.5407 279.448 55.3567 278.728 54.9887 278.072C54.6207 277.416 54.1247 276.896 53.5007 276.512C52.8927 276.128 52.2047 275.936 51.4367 275.936C50.6527 275.936 49.9407 276.128 49.3007 276.512C48.6607 276.896 48.1567 277.416 47.7887 278.072C47.4367 278.712 47.2607 279.432 47.2607 280.232C47.2607 281.032 47.4367 281.76 47.7887 282.416C48.1567 283.056 48.6527 283.568 49.2767 283.952C49.9167 284.336 50.6367 284.528 51.4367 284.528ZM67.2091 287.288C65.9611 287.288 64.8491 286.992 63.8731 286.4C62.8971 285.808 62.1291 285 61.5691 283.976C61.0091 282.936 60.7291 281.776 60.7291 280.496C60.7291 279.2 61.0011 278.048 61.5451 277.04C62.1051 276.032 62.8571 275.24 63.8011 274.664C64.7611 274.072 65.8331 273.776 67.0171 273.776C67.9771 273.776 68.8251 273.952 69.5611 274.304C70.3131 274.64 70.9451 275.104 71.4571 275.696C71.9851 276.272 72.3851 276.936 72.6571 277.688C72.9451 278.424 73.0891 279.192 73.0891 279.992C73.0891 280.168 73.0731 280.368 73.0411 280.592C73.0251 280.8 73.0011 281 72.9691 281.192H62.3611V279.272H71.6731L70.6171 280.136C70.7611 279.304 70.6811 278.56 70.3771 277.904C70.0731 277.248 69.6251 276.728 69.0331 276.344C68.4411 275.96 67.7691 275.768 67.0171 275.768C66.2651 275.768 65.5771 275.96 64.9531 276.344C64.3291 276.728 63.8411 277.28 63.4891 278C63.1531 278.704 63.0171 279.544 63.0811 280.52C63.0171 281.464 63.1611 282.296 63.5131 283.016C63.8811 283.72 64.3931 284.272 65.0491 284.672C65.7211 285.056 66.4491 285.248 67.2331 285.248C68.0971 285.248 68.8251 285.048 69.4171 284.648C70.0091 284.248 70.4891 283.736 70.8571 283.112L72.7291 284.072C72.4731 284.664 72.0731 285.208 71.5291 285.704C71.0011 286.184 70.3691 286.568 69.6331 286.856C68.9131 287.144 68.1051 287.288 67.2091 287.288ZM75.9992 287V274.064H78.1832V276.584L77.8232 276.368C78.1432 275.552 78.6552 274.92 79.3592 274.472C80.0792 274.008 80.9192 273.776 81.8792 273.776C82.8072 273.776 83.6312 273.984 84.3512 274.4C85.0872 274.816 85.6632 275.392 86.0792 276.128C86.5112 276.864 86.7272 277.696 86.7272 278.624V287H84.4712V279.344C84.4712 278.624 84.3432 278.016 84.0872 277.52C83.8312 277.024 83.4632 276.64 82.9832 276.368C82.5192 276.08 81.9832 275.936 81.3752 275.936C80.7672 275.936 80.2232 276.08 79.7432 276.368C79.2792 276.64 78.9112 277.032 78.6392 277.544C78.3672 278.04 78.2312 278.64 78.2312 279.344V287H75.9992ZM89.9211 287V274.064H92.1531V287H89.9211ZM89.9211 272V269.12H92.1531V272H89.9211ZM101.568 287.288C100.32 287.288 99.2084 286.992 98.2324 286.4C97.2564 285.808 96.4884 285 95.9284 283.976C95.3684 282.936 95.0884 281.776 95.0884 280.496C95.0884 279.2 95.3604 278.048 95.9044 277.04C96.4644 276.032 97.2164 275.24 98.1604 274.664C99.1204 274.072 100.192 273.776 101.376 273.776C102.336 273.776 103.184 273.952 103.92 274.304C104.672 274.64 105.304 275.104 105.816 275.696C106.344 276.272 106.744 276.936 107.016 277.688C107.304 278.424 107.448 279.192 107.448 279.992C107.448 280.168 107.432 280.368 107.4 280.592C107.384 280.8 107.36 281 107.328 281.192H96.7204V279.272H106.032L104.976 280.136C105.12 279.304 105.04 278.56 104.736 277.904C104.432 277.248 103.984 276.728 103.392 276.344C102.8 275.96 102.128 275.768 101.376 275.768C100.624 275.768 99.9364 275.96 99.3124 276.344C98.6884 276.728 98.2004 277.28 97.8484 278C97.5124 278.704 97.3764 279.544 97.4404 280.52C97.3764 281.464 97.5204 282.296 97.8724 283.016C98.2404 283.72 98.7524 284.272 99.4084 284.672C100.08 285.056 100.808 285.248 101.592 285.248C102.456 285.248 103.184 285.048 103.776 284.648C104.368 284.248 104.848 283.736 105.216 283.112L107.088 284.072C106.832 284.664 106.432 285.208 105.888 285.704C105.36 286.184 104.728 286.568 103.992 286.856C103.272 287.144 102.464 287.288 101.568 287.288ZM114.943 287.288C114.015 287.288 113.175 287.072 112.423 286.64C111.687 286.208 111.111 285.608 110.695 284.84C110.295 284.056 110.095 283.16 110.095 282.152V274.064H112.327V281.912C112.327 282.552 112.455 283.112 112.711 283.592C112.983 284.072 113.351 284.448 113.815 284.72C114.295 284.992 114.839 285.128 115.447 285.128C116.055 285.128 116.591 284.992 117.055 284.72C117.535 284.448 117.903 284.056 118.159 283.544C118.431 283.032 118.567 282.424 118.567 281.72V274.064H120.823V287H118.639V284.48L118.999 284.696C118.695 285.512 118.175 286.152 117.439 286.616C116.719 287.064 115.887 287.288 114.943 287.288ZM124.28 287V274.064H126.464V276.44L126.224 276.104C126.528 275.368 126.992 274.824 127.616 274.472C128.24 274.104 129 273.92 129.896 273.92H130.688V276.032H129.56C128.648 276.032 127.912 276.32 127.352 276.896C126.792 277.456 126.512 278.256 126.512 279.296V287H124.28ZM142.7 287.288C141.484 287.288 140.388 286.992 139.412 286.4C138.452 285.808 137.692 285 137.132 283.976C136.572 282.952 136.292 281.808 136.292 280.544C136.292 279.248 136.572 278.096 137.132 277.088C137.692 276.064 138.452 275.256 139.412 274.664C140.388 274.072 141.484 273.776 142.7 273.776C143.772 273.776 144.724 274.008 145.556 274.472C146.388 274.92 147.044 275.528 147.524 276.296L147.164 276.848V268.832H149.42V287H147.236V284.24L147.524 284.624C147.076 285.472 146.42 286.128 145.556 286.592C144.708 287.056 143.756 287.288 142.7 287.288ZM142.892 285.128C143.708 285.128 144.436 284.928 145.076 284.528C145.716 284.128 146.22 283.584 146.588 282.896C146.972 282.192 147.164 281.408 147.164 280.544C147.164 279.664 146.972 278.88 146.588 278.192C146.22 277.488 145.716 276.936 145.076 276.536C144.436 276.136 143.708 275.936 142.892 275.936C142.092 275.936 141.364 276.144 140.708 276.56C140.068 276.96 139.564 277.504 139.196 278.192C138.828 278.864 138.644 279.648 138.644 280.544C138.644 281.408 138.828 282.192 139.196 282.896C139.564 283.584 140.068 284.128 140.708 284.528C141.348 284.928 142.076 285.128 142.892 285.128ZM153.258 275.096V274.016C153.754 273.888 154.122 273.656 154.362 273.32C154.618 272.968 154.77 272.528 154.818 272H153.738V269.12H156.066V271.16C156.066 272.2 155.826 273.064 155.346 273.752C154.882 274.424 154.186 274.872 153.258 275.096ZM160.046 287V274.064H162.278V287H160.046ZM160.046 272V269.12H162.278V272H160.046ZM165.741 287V274.064H167.925V276.584L167.565 276.368C167.885 275.552 168.397 274.92 169.101 274.472C169.821 274.008 170.661 273.776 171.621 273.776C172.549 273.776 173.373 273.984 174.093 274.4C174.829 274.816 175.405 275.392 175.821 276.128C176.253 276.864 176.469 277.696 176.469 278.624V287H174.213V279.344C174.213 278.624 174.085 278.016 173.829 277.52C173.573 277.024 173.205 276.64 172.725 276.368C172.261 276.08 171.725 275.936 171.117 275.936C170.509 275.936 169.965 276.08 169.485 276.368C169.021 276.64 168.653 277.032 168.381 277.544C168.109 278.04 167.973 278.64 167.973 279.344V287H165.741ZM181.031 287V276.2H178.559V274.064H181.031V273.152C181.031 272.224 181.231 271.44 181.631 270.8C182.047 270.16 182.591 269.672 183.263 269.336C183.951 269 184.711 268.832 185.543 268.832C185.719 268.832 185.911 268.848 186.119 268.88C186.343 268.896 186.527 268.92 186.671 268.952V270.944C186.543 270.912 186.391 270.896 186.215 270.896C186.039 270.88 185.903 270.872 185.807 270.872C185.071 270.872 184.463 271.048 183.983 271.4C183.519 271.752 183.287 272.336 183.287 273.152V274.064H186.359V276.2H183.287V287H181.031ZM194.737 287.288C193.489 287.288 192.361 287 191.353 286.424C190.345 285.832 189.545 285.024 188.953 284C188.361 282.976 188.065 281.816 188.065 280.52C188.065 279.224 188.353 278.072 188.929 277.064C189.521 276.056 190.321 275.256 191.329 274.664C192.337 274.072 193.473 273.776 194.737 273.776C195.985 273.776 197.113 274.072 198.121 274.664C199.129 275.24 199.921 276.032 200.497 277.04C201.089 278.048 201.385 279.208 201.385 280.52C201.385 281.832 201.081 283 200.473 284.024C199.865 285.032 199.057 285.832 198.049 286.424C197.057 287 195.953 287.288 194.737 287.288ZM194.737 285.128C195.537 285.128 196.257 284.928 196.897 284.528C197.553 284.128 198.065 283.576 198.433 282.872C198.817 282.168 199.009 281.384 199.009 280.52C199.009 279.64 198.817 278.864 198.433 278.192C198.065 277.504 197.553 276.96 196.897 276.56C196.257 276.144 195.537 275.936 194.737 275.936C193.921 275.936 193.185 276.144 192.529 276.56C191.889 276.96 191.377 277.504 190.993 278.192C190.609 278.864 190.417 279.64 190.417 280.52C190.417 281.384 190.609 282.168 190.993 282.872C191.377 283.576 191.889 284.128 192.529 284.528C193.185 284.928 193.921 285.128 194.737 285.128ZM204.296 287V274.064H206.48V276.44L206.24 276.104C206.544 275.368 207.008 274.824 207.632 274.472C208.256 274.104 209.016 273.92 209.912 273.92H210.704V276.032H209.576C208.664 276.032 207.928 276.32 207.368 276.896C206.808 277.456 206.528 278.256 206.528 279.296V287H204.296ZM212.687 287V274.064H214.871V276.704L214.559 276.296C214.879 275.48 215.391 274.856 216.095 274.424C216.799 273.992 217.591 273.776 218.471 273.776C219.479 273.776 220.383 274.056 221.183 274.616C221.999 275.176 222.559 275.912 222.863 276.824L222.239 276.848C222.575 275.84 223.143 275.08 223.943 274.568C224.743 274.04 225.631 273.776 226.607 273.776C227.503 273.776 228.311 273.984 229.031 274.4C229.767 274.816 230.351 275.392 230.783 276.128C231.215 276.864 231.431 277.696 231.431 278.624V287H229.175V279.344C229.175 278.624 229.047 278.016 228.791 277.52C228.535 277.024 228.183 276.64 227.735 276.368C227.303 276.08 226.791 275.936 226.199 275.936C225.623 275.936 225.103 276.08 224.639 276.368C224.191 276.64 223.831 277.032 223.559 277.544C223.303 278.04 223.175 278.64 223.175 279.344V287H220.919V279.344C220.919 278.624 220.791 278.016 220.535 277.52C220.279 277.024 219.927 276.64 219.479 276.368C219.047 276.08 218.535 275.936 217.943 275.936C217.367 275.936 216.847 276.08 216.383 276.368C215.935 276.64 215.575 277.032 215.303 277.544C215.047 278.04 214.919 278.64 214.919 279.344V287H212.687ZM238.393 287.288C237.545 287.288 236.793 287.136 236.137 286.832C235.497 286.512 234.993 286.08 234.625 285.536C234.257 284.976 234.073 284.336 234.073 283.616C234.073 282.928 234.217 282.312 234.505 281.768C234.809 281.208 235.273 280.736 235.897 280.352C236.537 279.968 237.337 279.696 238.297 279.536L243.097 278.744V280.616L238.801 281.336C237.969 281.48 237.361 281.744 236.977 282.128C236.609 282.512 236.425 282.984 236.425 283.544C236.425 284.072 236.633 284.512 237.049 284.864C237.481 285.216 238.017 285.392 238.657 285.392C239.473 285.392 240.177 285.224 240.769 284.888C241.377 284.536 241.849 284.064 242.185 283.472C242.537 282.88 242.713 282.224 242.713 281.504V278.216C242.713 277.512 242.449 276.944 241.921 276.512C241.409 276.064 240.729 275.84 239.881 275.84C239.145 275.84 238.489 276.032 237.913 276.416C237.353 276.784 236.937 277.28 236.665 277.904L234.721 276.896C234.961 276.304 235.345 275.776 235.873 275.312C236.401 274.832 237.017 274.456 237.721 274.184C238.425 273.912 239.161 273.776 239.929 273.776C240.921 273.776 241.793 273.968 242.545 274.352C243.297 274.72 243.881 275.24 244.297 275.912C244.729 276.568 244.945 277.336 244.945 278.216V287H242.761V284.552L243.169 284.696C242.897 285.208 242.529 285.656 242.065 286.04C241.601 286.424 241.057 286.728 240.433 286.952C239.809 287.176 239.129 287.288 238.393 287.288ZM253.427 287.144C252.163 287.144 251.187 286.784 250.499 286.064C249.827 285.344 249.491 284.328 249.491 283.016V276.2H247.139V274.064H247.619C248.195 274.064 248.651 273.888 248.987 273.536C249.323 273.184 249.491 272.72 249.491 272.144V271.088H251.723V274.064H254.627V276.2H251.723V282.944C251.723 283.376 251.787 283.752 251.915 284.072C252.059 284.392 252.291 284.648 252.611 284.84C252.931 285.016 253.355 285.104 253.883 285.104C253.995 285.104 254.131 285.096 254.291 285.08C254.467 285.064 254.627 285.048 254.771 285.032V287C254.563 287.048 254.331 287.08 254.075 287.096C253.819 287.128 253.603 287.144 253.427 287.144ZM257.687 287V274.064H259.919V287H257.687ZM257.687 272V269.12H259.919V272H257.687ZM273.726 291.8V284.24L274.086 284.624C273.638 285.472 272.982 286.128 272.118 286.592C271.27 287.056 270.318 287.288 269.262 287.288C268.046 287.288 266.95 286.992 265.974 286.4C265.014 285.808 264.254 285 263.694 283.976C263.134 282.952 262.854 281.808 262.854 280.544C262.854 279.248 263.134 278.096 263.694 277.088C264.254 276.064 265.014 275.256 265.974 274.664C266.95 274.072 268.046 273.776 269.262 273.776C270.334 273.776 271.286 274.008 272.118 274.472C272.95 274.92 273.606 275.528 274.086 276.296L273.798 276.848V274.064H275.982V291.8H273.726ZM269.454 285.128C270.27 285.128 270.998 284.928 271.638 284.528C272.278 284.128 272.782 283.584 273.15 282.896C273.534 282.192 273.726 281.408 273.726 280.544C273.726 279.664 273.534 278.88 273.15 278.192C272.782 277.488 272.278 276.936 271.638 276.536C270.998 276.136 270.27 275.936 269.454 275.936C268.654 275.936 267.926 276.144 267.27 276.56C266.63 276.96 266.126 277.504 265.758 278.192C265.39 278.864 265.206 279.648 265.206 280.544C265.206 281.408 265.39 282.192 265.758 282.896C266.126 283.584 266.63 284.128 267.27 284.528C267.91 284.928 268.638 285.128 269.454 285.128ZM284.021 287.288C283.093 287.288 282.253 287.072 281.501 286.64C280.765 286.208 280.189 285.608 279.773 284.84C279.373 284.056 279.173 283.16 279.173 282.152V274.064H281.405V281.912C281.405 282.552 281.533 283.112 281.789 283.592C282.061 284.072 282.429 284.448 282.893 284.72C283.373 284.992 283.917 285.128 284.525 285.128C285.133 285.128 285.669 284.992 286.133 284.72C286.613 284.448 286.981 284.056 287.237 283.544C287.509 283.032 287.645 282.424 287.645 281.72V274.064H289.901V287H287.717V284.48L288.077 284.696C287.773 285.512 287.253 286.152 286.517 286.616C285.797 287.064 284.965 287.288 284.021 287.288ZM299.311 287.288C298.063 287.288 296.951 286.992 295.975 286.4C294.999 285.808 294.231 285 293.671 283.976C293.111 282.936 292.831 281.776 292.831 280.496C292.831 279.2 293.103 278.048 293.647 277.04C294.207 276.032 294.959 275.24 295.903 274.664C296.863 274.072 297.935 273.776 299.119 273.776C300.079 273.776 300.927 273.952 301.663 274.304C302.415 274.64 303.047 275.104 303.559 275.696C304.087 276.272 304.487 276.936 304.759 277.688C305.047 278.424 305.191 279.192 305.191 279.992C305.191 280.168 305.175 280.368 305.143 280.592C305.127 280.8 305.103 281 305.071 281.192H294.463V279.272H303.775L302.719 280.136C302.863 279.304 302.783 278.56 302.479 277.904C302.175 277.248 301.727 276.728 301.135 276.344C300.543 275.96 299.871 275.768 299.119 275.768C298.367 275.768 297.679 275.96 297.055 276.344C296.431 276.728 295.943 277.28 295.591 278C295.255 278.704 295.119 279.544 295.183 280.52C295.119 281.464 295.263 282.296 295.615 283.016C295.983 283.72 296.495 284.272 297.151 284.672C297.823 285.056 298.551 285.248 299.335 285.248C300.199 285.248 300.927 285.048 301.519 284.648C302.111 284.248 302.591 283.736 302.959 283.112L304.831 284.072C304.575 284.664 304.175 285.208 303.631 285.704C303.103 286.184 302.471 286.568 301.735 286.856C301.015 287.144 300.207 287.288 299.311 287.288Z" fill="#0D71F5"/>
<g clip-path="url(#clip3_59_205)">
<path d="M333.232 265V289H357.232V265H333.232Z" fill="#E3EBFA"/>
<path d="M342.732 272L347.732 277L342.732 282" stroke="#0D71F5" stroke-width="2.5" stroke-linecap="round" stroke-linejoin="round"/>
</g>
<path d="M10.4962 374L16.9042 356.12H19.6882L26.0962 374H23.5762L22.1122 369.8H14.4802L13.0162 374H10.4962ZM15.2242 367.64H21.3682L17.9602 357.824H18.6322L15.2242 367.64ZM28.0852 374V355.832H30.3172V374H28.0852ZM39.9485 379.28C39.0365 379.28 38.1885 379.136 37.4045 378.848C36.6365 378.56 35.9725 378.16 35.4125 377.648C34.8685 377.152 34.4525 376.568 34.1645 375.896L36.2525 374.936C36.4765 375.544 36.9005 376.056 37.5245 376.472C38.1645 376.904 38.9645 377.12 39.9245 377.12C40.6605 377.12 41.3245 376.976 41.9165 376.688C42.5245 376.416 43.0045 376 43.3565 375.44C43.7085 374.896 43.8845 374.232 43.8845 373.448V370.544L44.2925 370.976C43.8445 371.856 43.1965 372.528 42.3485 372.992C41.5165 373.456 40.5965 373.688 39.5885 373.688C38.3725 373.688 37.2845 373.408 36.3245 372.848C35.3645 372.272 34.6125 371.496 34.0685 370.52C33.5245 369.528 33.2525 368.432 33.2525 367.232C33.2525 366.016 33.5245 364.92 34.0685 363.944C34.6125 362.968 35.3565 362.2 36.3005 361.64C37.2605 361.064 38.3485 360.776 39.5645 360.776C40.5725 360.776 41.4845 361.008 42.3005 361.472C43.1325 361.92 43.7965 362.544 44.2925 363.344L43.9565 363.944V361.064H46.1405V373.448C46.1405 374.568 45.8765 375.568 45.3485 376.448C44.8205 377.328 44.0845 378.016 43.1405 378.512C42.2125 379.024 41.1485 379.28 39.9485 379.28ZM39.7805 371.528C40.5485 371.528 41.2365 371.336 41.8445 370.952C42.4685 370.568 42.9645 370.056 43.3325 369.416C43.7005 368.76 43.8845 368.032 43.8845 367.232C43.8845 366.448 43.7005 365.728 43.3325 365.072C42.9645 364.416 42.4685 363.896 41.8445 363.512C41.2365 363.128 40.5485 362.936 39.7805 362.936C38.9965 362.936 38.2845 363.128 37.6445 363.512C37.0045 363.896 36.5005 364.416 36.1325 365.072C35.7805 365.712 35.6045 366.432 35.6045 367.232C35.6045 368.032 35.7805 368.76 36.1325 369.416C36.5005 370.056 36.9965 370.568 37.6205 370.952C38.2605 371.336 38.9805 371.528 39.7805 371.528ZM55.7448 374.288C54.4968 374.288 53.3688 374 52.3608 373.424C51.3528 372.832 50.5528 372.024 49.9608 371C49.3688 369.976 49.0728 368.816 49.0728 367.52C49.0728 366.224 49.3608 365.072 49.9368 364.064C50.5288 363.056 51.3288 362.256 52.3368 361.664C53.3448 361.072 54.4808 360.776 55.7448 360.776C56.9928 360.776 58.1208 361.072 59.1288 361.664C60.1368 362.24 60.9288 363.032 61.5048 364.04C62.0968 365.048 62.3928 366.208 62.3928 367.52C62.3928 368.832 62.0888 370 61.4808 371.024C60.8728 372.032 60.0648 372.832 59.0568 373.424C58.0648 374 56.9608 374.288 55.7448 374.288ZM55.7448 372.128C56.5448 372.128 57.2648 371.928 57.9048 371.528C58.5608 371.128 59.0728 370.576 59.4408 369.872C59.8248 369.168 60.0168 368.384 60.0168 367.52C60.0168 366.64 59.8248 365.864 59.4408 365.192C59.0728 364.504 58.5608 363.96 57.9048 363.56C57.2648 363.144 56.5448 362.936 55.7448 362.936C54.9288 362.936 54.1928 363.144 53.5368 363.56C52.8968 363.96 52.3848 364.504 52.0008 365.192C51.6168 365.864 51.4248 366.64 51.4248 367.52C51.4248 368.384 51.6168 369.168 52.0008 369.872C52.3848 370.576 52.8968 371.128 53.5368 371.528C54.1928 371.928 54.9288 372.128 55.7448 372.128ZM65.3039 374V361.064H67.4879V363.44L67.2479 363.104C67.5519 362.368 68.0159 361.824 68.6399 361.472C69.2639 361.104 70.0239 360.92 70.9199 360.92H71.7119V363.032H70.5839C69.6719 363.032 68.9359 363.32 68.3759 363.896C67.8159 364.456 67.5359 365.256 67.5359 366.296V374H65.3039ZM73.6946 374V361.064H75.9266V374H73.6946ZM73.6946 359V356.12H75.9266V359H73.6946ZM84.6459 374.144C83.3819 374.144 82.4059 373.784 81.7179 373.064C81.0459 372.344 80.7099 371.328 80.7099 370.016V363.2H78.3579V361.064H78.8379C79.4139 361.064 79.8699 360.888 80.2059 360.536C80.5419 360.184 80.7099 359.72 80.7099 359.144V358.088H82.9419V361.064H85.8459V363.2H82.9419V369.944C82.9419 370.376 83.0059 370.752 83.1339 371.072C83.2779 371.392 83.5099 371.648 83.8299 371.84C84.1499 372.016 84.5739 372.104 85.1019 372.104C85.2139 372.104 85.3499 372.096 85.5099 372.08C85.6859 372.064 85.8459 372.048 85.9899 372.032V374C85.7819 374.048 85.5499 374.08 85.2939 374.096C85.0379 374.128 84.8219 374.144 84.6459 374.144ZM88.9055 374V355.832H91.1375V363.584L90.7295 363.368C91.0495 362.552 91.5615 361.92 92.2655 361.472C92.9855 361.008 93.8255 360.776 94.7855 360.776C95.7135 360.776 96.5375 360.984 97.2575 361.4C97.9935 361.816 98.5695 362.392 98.9855 363.128C99.4175 363.864 99.6335 364.696 99.6335 365.624V374H97.3775V366.344C97.3775 365.624 97.2415 365.016 96.9695 364.52C96.7135 364.024 96.3535 363.64 95.8895 363.368C95.4255 363.08 94.8895 362.936 94.2815 362.936C93.6895 362.936 93.1535 363.08 92.6735 363.368C92.1935 363.64 91.8175 364.032 91.5455 364.544C91.2735 365.04 91.1375 365.64 91.1375 366.344V374H88.9055ZM102.827 374V361.064H105.011V363.704L104.699 363.296C105.019 362.48 105.531 361.856 106.235 361.424C106.939 360.992 107.731 360.776 108.611 360.776C109.619 360.776 110.523 361.056 111.323 361.616C112.139 362.176 112.699 362.912 113.003 363.824L112.379 363.848C112.715 362.84 113.283 362.08 114.083 361.568C114.883 361.04 115.771 360.776 116.747 360.776C117.643 360.776 118.451 360.984 119.171 361.4C119.907 361.816 120.491 362.392 120.923 363.128C121.355 363.864 121.571 364.696 121.571 365.624V374H119.315V366.344C119.315 365.624 119.187 365.016 118.931 364.52C118.675 364.024 118.323 363.64 117.875 363.368C117.443 363.08 116.931 362.936 116.339 362.936C115.763 362.936 115.243 363.08 114.779 363.368C114.331 363.64 113.971 364.032 113.699 364.544C113.443 365.04 113.315 365.64 113.315 366.344V374H111.059V366.344C111.059 365.624 110.931 365.016 110.675 364.52C110.419 364.024 110.067 363.64 109.619 363.368C109.187 363.08 108.675 362.936 108.083 362.936C107.507 362.936 106.987 363.08 106.523 363.368C106.075 363.64 105.715 364.032 105.443 364.544C105.187 365.04 105.059 365.64 105.059 366.344V374H102.827ZM129.373 374.288C128.077 374.288 126.949 373.968 125.989 373.328C125.029 372.688 124.349 371.824 123.949 370.736L125.725 369.872C126.093 370.64 126.597 371.248 127.237 371.696C127.877 372.144 128.589 372.368 129.373 372.368C130.077 372.368 130.661 372.2 131.125 371.864C131.589 371.528 131.821 371.088 131.821 370.544C131.821 370.16 131.709 369.856 131.485 369.632C131.277 369.392 131.021 369.208 130.717 369.08C130.413 368.936 130.133 368.832 129.877 368.768L127.933 368.216C126.765 367.88 125.909 367.4 125.365 366.776C124.837 366.152 124.573 365.424 124.573 364.592C124.573 363.824 124.765 363.16 125.149 362.6C125.549 362.024 126.085 361.576 126.757 361.256C127.445 360.936 128.213 360.776 129.061 360.776C130.197 360.776 131.213 361.064 132.109 361.64C133.021 362.216 133.669 363.024 134.053 364.064L132.229 364.904C131.941 364.232 131.509 363.704 130.933 363.32C130.357 362.92 129.709 362.72 128.989 362.72C128.333 362.72 127.813 362.888 127.429 363.224C127.045 363.544 126.853 363.952 126.853 364.448C126.853 364.816 126.949 365.12 127.141 365.36C127.333 365.584 127.565 365.76 127.837 365.888C128.109 366 128.373 366.096 128.629 366.176L130.741 366.8C131.797 367.104 132.613 367.576 133.189 368.216C133.781 368.856 134.077 369.624 134.077 370.52C134.077 371.24 133.877 371.888 133.477 372.464C133.077 373.04 132.525 373.488 131.821 373.808C131.117 374.128 130.301 374.288 129.373 374.288Z" fill="#696D75"/>
<g clip-path="url(#clip4_59_205)">
<path d="M162.232 352V376H186.232V352H162.232Z" fill="white"/>
<path d="M171.732 359L176.732 364L171.732 369" stroke="#696D75" stroke-width="2.5" stroke-linecap="round" stroke-linejoin="round"/>
</g>
<path d="M381.232 0V479H383.232V0H381.232Z" fill="#E4E4E7" mask="url(#path-1-inside-1_59_205)"/>
<path d="M402.604 44.432C400.708 44.432 398.956 44.096 397.348 43.424C395.74 42.728 394.348 41.756 393.172 40.508C391.996 39.26 391.072 37.796 390.4 36.116C389.752 34.436 389.428 32.6 389.428 30.608C389.428 28.592 389.752 26.744 390.4 25.064C391.048 23.384 391.96 21.92 393.136 20.672C394.312 19.424 395.704 18.464 397.312 17.792C398.92 17.096 400.672 16.748 402.568 16.748C404.416 16.748 406.072 17.072 407.536 17.72C409.024 18.368 410.272 19.208 411.28 20.24C412.312 21.272 413.044 22.376 413.476 23.552L410.308 25.1C409.684 23.54 408.712 22.304 407.392 21.392C406.072 20.48 404.464 20.024 402.568 20.024C400.696 20.024 399.028 20.468 397.564 21.356C396.124 22.244 394.996 23.48 394.18 25.064C393.364 26.648 392.956 28.496 392.956 30.608C392.956 32.696 393.364 34.532 394.18 36.116C395.02 37.7 396.16 38.936 397.6 39.824C399.064 40.712 400.732 41.156 402.604 41.156C404.236 41.156 405.712 40.808 407.032 40.112C408.352 39.416 409.396 38.456 410.164 37.232C410.932 36.008 411.316 34.592 411.316 32.984V31.328L412.936 32.84H402.568V29.78H414.88V32.156C414.88 34.028 414.556 35.72 413.908 37.232C413.26 38.744 412.372 40.04 411.244 41.12C410.116 42.176 408.808 42.992 407.32 43.568C405.832 44.144 404.26 44.432 402.604 44.432ZM419.25 44V24.596H422.526V28.16L422.166 27.656C422.622 26.552 423.318 25.736 424.254 25.208C425.19 24.656 426.33 24.38 427.674 24.38H428.862V27.548H427.17C425.802 27.548 424.698 27.98 423.858 28.844C423.018 29.684 422.598 30.884 422.598 32.444V44H419.25ZM441.052 44.432C439.18 44.432 437.488 44 435.976 43.136C434.464 42.248 433.264 41.036 432.376 39.5C431.488 37.964 431.044 36.224 431.044 34.28C431.044 32.336 431.476 30.608 432.34 29.096C433.228 27.584 434.428 26.384 435.94 25.496C437.452 24.608 439.156 24.164 441.052 24.164C442.924 24.164 444.616 24.608 446.128 25.496C447.64 26.36 448.828 27.548 449.692 29.06C450.58 30.572 451.024 32.312 451.024 34.28C451.024 36.248 450.568 38 449.656 39.536C448.744 41.048 447.532 42.248 446.02 43.136C444.532 44 442.876 44.432 441.052 44.432ZM441.052 41.192C442.252 41.192 443.332 40.892 444.292 40.292C445.276 39.692 446.044 38.864 446.596 37.808C447.172 36.752 447.46 35.576 447.46 34.28C447.46 32.96 447.172 31.796 446.596 30.788C446.044 29.756 445.276 28.94 444.292 28.34C443.332 27.716 442.252 27.404 441.052 27.404C439.828 27.404 438.724 27.716 437.74 28.34C436.78 28.94 436.012 29.756 435.436 30.788C434.86 31.796 434.572 32.96 434.572 34.28C434.572 35.576 434.86 36.752 435.436 37.808C436.012 38.864 436.78 39.692 437.74 40.292C438.724 40.892 439.828 41.192 441.052 41.192ZM462.267 44.432C460.875 44.432 459.615 44.108 458.487 43.46C457.383 42.812 456.519 41.912 455.895 40.76C455.295 39.584 454.995 38.24 454.995 36.728V24.596H458.343V36.368C458.343 37.328 458.535 38.168 458.919 38.888C459.327 39.608 459.879 40.172 460.575 40.58C461.295 40.988 462.111 41.192 463.023 41.192C463.935 41.192 464.739 40.988 465.435 40.58C466.155 40.172 466.707 39.584 467.091 38.816C467.499 38.048 467.703 37.136 467.703 36.08V24.596H471.087V44H467.811V40.22L468.351 40.544C467.895 41.768 467.115 42.728 466.011 43.424C464.931 44.096 463.683 44.432 462.267 44.432ZM476.273 51.2V24.596H479.549V28.772L479.117 27.944C479.837 26.792 480.821 25.88 482.069 25.208C483.317 24.512 484.745 24.164 486.353 24.164C488.177 24.164 489.809 24.608 491.249 25.496C492.713 26.384 493.865 27.596 494.705 29.132C495.545 30.644 495.965 32.372 495.965 34.316C495.965 36.212 495.545 37.928 494.705 39.464C493.865 41 492.713 42.212 491.249 43.1C489.809 43.988 488.165 44.432 486.317 44.432C484.757 44.432 483.329 44.084 482.033 43.388C480.761 42.692 479.777 41.708 479.081 40.436L479.621 39.86V51.2H476.273ZM486.065 41.192C487.289 41.192 488.381 40.892 489.341 40.292C490.301 39.692 491.045 38.876 491.573 37.844C492.125 36.788 492.401 35.612 492.401 34.316C492.401 32.972 492.125 31.796 491.573 30.788C491.045 29.756 490.301 28.94 489.341 28.34C488.381 27.716 487.289 27.404 486.065 27.404C484.841 27.404 483.737 27.704 482.753 28.304C481.793 28.904 481.025 29.732 480.449 30.788C479.897 31.82 479.621 32.996 479.621 34.316C479.621 35.612 479.897 36.788 480.449 37.844C481.025 38.876 481.793 39.692 482.753 40.292C483.737 40.892 484.841 41.192 486.065 41.192Z" fill="black"/>
<path d="M650.149 32.5C650.149 25.6253 650.149 22.188 652.284 20.0523C654.42 17.9167 657.857 17.9167 664.732 17.9167C671.607 17.9167 675.044 17.9167 677.18 20.0523C679.315 22.188 679.315 25.6253 679.315 32.5C679.315 39.3746 679.315 42.812 677.18 44.9476C675.044 47.0833 671.607 47.0833 664.732 47.0833C657.857 47.0833 654.42 47.0833 652.284 44.9476C650.149 42.812 650.149 39.3746 650.149 32.5Z" stroke="#0D71F5" stroke-width="2"/>
<path d="M669.107 32.5H664.732M664.732 32.5H660.357M664.732 32.5V28.125M664.732 32.5V36.875" stroke="#0D71F5" stroke-width="2" stroke-linecap="round"/>
<rect width="147" height="48" transform="translate(387.232 99)" fill="#E3EBFA"/>
<path d="M402.48 133.288C401.216 133.288 400.048 133.064 398.976 132.616C397.904 132.152 396.976 131.504 396.192 130.672C395.408 129.84 394.792 128.864 394.344 127.744C393.912 126.624 393.696 125.4 393.696 124.072C393.696 122.728 393.912 121.496 394.344 120.376C394.776 119.256 395.384 118.28 396.168 117.448C396.952 116.616 397.88 115.976 398.952 115.528C400.024 115.064 401.192 114.832 402.456 114.832C403.688 114.832 404.792 115.048 405.768 115.48C406.76 115.912 407.592 116.472 408.264 117.16C408.952 117.848 409.44 118.584 409.728 119.368L407.616 120.4C407.2 119.36 406.552 118.536 405.672 117.928C404.792 117.32 403.72 117.016 402.456 117.016C401.208 117.016 400.096 117.312 399.12 117.904C398.16 118.496 397.408 119.32 396.864 120.376C396.32 121.432 396.048 122.664 396.048 124.072C396.048 125.464 396.32 126.688 396.864 127.744C397.424 128.8 398.184 129.624 399.144 130.216C400.12 130.808 401.232 131.104 402.48 131.104C403.568 131.104 404.552 130.872 405.432 130.408C406.312 129.944 407.008 129.304 407.52 128.488C408.032 127.672 408.288 126.728 408.288 125.656V124.552L409.368 125.56H402.456V123.52H410.664V125.104C410.664 126.352 410.448 127.48 410.016 128.488C409.584 129.496 408.992 130.36 408.24 131.08C407.488 131.784 406.616 132.328 405.624 132.712C404.632 133.096 403.584 133.288 402.48 133.288ZM413.577 133V120.064H415.761V122.44L415.521 122.104C415.825 121.368 416.289 120.824 416.913 120.472C417.537 120.104 418.297 119.92 419.193 119.92H419.985V122.032H418.857C417.945 122.032 417.209 122.32 416.649 122.896C416.089 123.456 415.809 124.256 415.809 125.296V133H413.577ZM428.112 133.288C426.864 133.288 425.736 133 424.728 132.424C423.72 131.832 422.92 131.024 422.328 130C421.736 128.976 421.44 127.816 421.44 126.52C421.44 125.224 421.728 124.072 422.304 123.064C422.896 122.056 423.696 121.256 424.704 120.664C425.712 120.072 426.848 119.776 428.112 119.776C429.36 119.776 430.488 120.072 431.496 120.664C432.504 121.24 433.296 122.032 433.872 123.04C434.464 124.048 434.76 125.208 434.76 126.52C434.76 127.832 434.456 129 433.848 130.024C433.24 131.032 432.432 131.832 431.424 132.424C430.432 133 429.328 133.288 428.112 133.288ZM428.112 131.128C428.912 131.128 429.632 130.928 430.272 130.528C430.928 130.128 431.44 129.576 431.808 128.872C432.192 128.168 432.384 127.384 432.384 126.52C432.384 125.64 432.192 124.864 431.808 124.192C431.44 123.504 430.928 122.96 430.272 122.56C429.632 122.144 428.912 121.936 428.112 121.936C427.296 121.936 426.56 122.144 425.904 122.56C425.264 122.96 424.752 123.504 424.368 124.192C423.984 124.864 423.792 125.64 423.792 126.52C423.792 127.384 423.984 128.168 424.368 128.872C424.752 129.576 425.264 130.128 425.904 130.528C426.56 130.928 427.296 131.128 428.112 131.128ZM442.255 133.288C441.327 133.288 440.487 133.072 439.735 132.64C438.999 132.208 438.423 131.608 438.007 130.84C437.607 130.056 437.407 129.16 437.407 128.152V120.064H439.639V127.912C439.639 128.552 439.767 129.112 440.023 129.592C440.295 130.072 440.663 130.448 441.127 130.72C441.607 130.992 442.151 131.128 442.759 131.128C443.367 131.128 443.903 130.992 444.367 130.72C444.847 130.448 445.215 130.056 445.471 129.544C445.743 129.032 445.879 128.424 445.879 127.72V120.064H448.135V133H445.951V130.48L446.311 130.696C446.007 131.512 445.487 132.152 444.751 132.616C444.031 133.064 443.199 133.288 442.255 133.288ZM451.593 137.8V120.064H453.777V122.848L453.489 122.296C453.969 121.528 454.625 120.92 455.457 120.472C456.289 120.008 457.241 119.776 458.313 119.776C459.529 119.776 460.617 120.072 461.577 120.664C462.553 121.256 463.321 122.064 463.881 123.088C464.441 124.096 464.721 125.248 464.721 126.544C464.721 127.808 464.441 128.952 463.881 129.976C463.321 131 462.553 131.808 461.577 132.4C460.617 132.992 459.521 133.288 458.289 133.288C457.249 133.288 456.297 133.056 455.433 132.592C454.585 132.128 453.929 131.472 453.465 130.624L453.825 130.24V137.8H451.593ZM458.121 131.128C458.937 131.128 459.665 130.928 460.305 130.528C460.945 130.128 461.441 129.584 461.793 128.896C462.161 128.192 462.345 127.408 462.345 126.544C462.345 125.648 462.161 124.864 461.793 124.192C461.441 123.504 460.945 122.96 460.305 122.56C459.665 122.144 458.937 121.936 458.121 121.936C457.305 121.936 456.569 122.136 455.913 122.536C455.273 122.936 454.761 123.488 454.377 124.192C454.009 124.88 453.825 125.664 453.825 126.544C453.825 127.408 454.009 128.192 454.377 128.896C454.761 129.584 455.273 130.128 455.913 130.528C456.569 130.928 457.305 131.128 458.121 131.128ZM474.34 133V117.16H470.956V115.12H476.716V133H474.34Z" fill="#0D71F5"/>
<g clip-path="url(#clip5_59_205)">
<path d="M505.232 111V135H529.232V111H505.232Z" fill="#E3EBFA"/>
<path d="M514.732 118L519.732 123L514.732 128" stroke="#0D71F5" stroke-width="2.5" stroke-linecap="round" stroke-linejoin="round"/>
</g>
<path d="M397.48 220.288C396.216 220.288 395.048 220.064 393.976 219.616C392.904 219.152 391.976 218.504 391.192 217.672C390.408 216.84 389.792 215.864 389.344 214.744C388.912 213.624 388.696 212.4 388.696 211.072C388.696 209.728 388.912 208.496 389.344 207.376C389.776 206.256 390.384 205.28 391.168 204.448C391.952 203.616 392.88 202.976 393.952 202.528C395.024 202.064 396.192 201.832 397.456 201.832C398.688 201.832 399.792 202.048 400.768 202.48C401.76 202.912 402.592 203.472 403.264 204.16C403.952 204.848 404.44 205.584 404.728 206.368L402.616 207.4C402.2 206.36 401.552 205.536 400.672 204.928C399.792 204.32 398.72 204.016 397.456 204.016C396.208 204.016 395.096 204.312 394.12 204.904C393.16 205.496 392.408 206.32 391.864 207.376C391.32 208.432 391.048 209.664 391.048 211.072C391.048 212.464 391.32 213.688 391.864 214.744C392.424 215.8 393.184 216.624 394.144 217.216C395.12 217.808 396.232 218.104 397.48 218.104C398.568 218.104 399.552 217.872 400.432 217.408C401.312 216.944 402.008 216.304 402.52 215.488C403.032 214.672 403.288 213.728 403.288 212.656V211.552L404.368 212.56H397.456V210.52H405.664V212.104C405.664 213.352 405.448 214.48 405.016 215.488C404.584 216.496 403.992 217.36 403.24 218.08C402.488 218.784 401.616 219.328 400.624 219.712C399.632 220.096 398.584 220.288 397.48 220.288ZM408.577 220V207.064H410.761V209.44L410.521 209.104C410.825 208.368 411.289 207.824 411.913 207.472C412.537 207.104 413.297 206.92 414.193 206.92H414.985V209.032H413.857C412.945 209.032 412.209 209.32 411.649 209.896C411.089 210.456 410.809 211.256 410.809 212.296V220H408.577ZM423.112 220.288C421.864 220.288 420.736 220 419.728 219.424C418.72 218.832 417.92 218.024 417.328 217C416.736 215.976 416.44 214.816 416.44 213.52C416.44 212.224 416.728 211.072 417.304 210.064C417.896 209.056 418.696 208.256 419.704 207.664C420.712 207.072 421.848 206.776 423.112 206.776C424.36 206.776 425.488 207.072 426.496 207.664C427.504 208.24 428.296 209.032 428.872 210.04C429.464 211.048 429.76 212.208 429.76 213.52C429.76 214.832 429.456 216 428.848 217.024C428.24 218.032 427.432 218.832 426.424 219.424C425.432 220 424.328 220.288 423.112 220.288ZM423.112 218.128C423.912 218.128 424.632 217.928 425.272 217.528C425.928 217.128 426.44 216.576 426.808 215.872C427.192 215.168 427.384 214.384 427.384 213.52C427.384 212.64 427.192 211.864 426.808 211.192C426.44 210.504 425.928 209.96 425.272 209.56C424.632 209.144 423.912 208.936 423.112 208.936C422.296 208.936 421.56 209.144 420.904 209.56C420.264 209.96 419.752 210.504 419.368 211.192C418.984 211.864 418.792 212.64 418.792 213.52C418.792 214.384 418.984 215.168 419.368 215.872C419.752 216.576 420.264 217.128 420.904 217.528C421.56 217.928 422.296 218.128 423.112 218.128ZM437.255 220.288C436.327 220.288 435.487 220.072 434.735 219.64C433.999 219.208 433.423 218.608 433.007 217.84C432.607 217.056 432.407 216.16 432.407 215.152V207.064H434.639V214.912C434.639 215.552 434.767 216.112 435.023 216.592C435.295 217.072 435.663 217.448 436.127 217.72C436.607 217.992 437.151 218.128 437.759 218.128C438.367 218.128 438.903 217.992 439.367 217.72C439.847 217.448 440.215 217.056 440.471 216.544C440.743 216.032 440.879 215.424 440.879 214.72V207.064H443.135V220H440.951V217.48L441.311 217.696C441.007 218.512 440.487 219.152 439.751 219.616C439.031 220.064 438.199 220.288 437.255 220.288ZM446.593 224.8V207.064H448.777V209.848L448.489 209.296C448.969 208.528 449.625 207.92 450.457 207.472C451.289 207.008 452.241 206.776 453.313 206.776C454.529 206.776 455.617 207.072 456.577 207.664C457.553 208.256 458.321 209.064 458.881 210.088C459.441 211.096 459.721 212.248 459.721 213.544C459.721 214.808 459.441 215.952 458.881 216.976C458.321 218 457.553 218.808 456.577 219.4C455.617 219.992 454.521 220.288 453.289 220.288C452.249 220.288 451.297 220.056 450.433 219.592C449.585 219.128 448.929 218.472 448.465 217.624L448.825 217.24V224.8H446.593ZM453.121 218.128C453.937 218.128 454.665 217.928 455.305 217.528C455.945 217.128 456.441 216.584 456.793 215.896C457.161 215.192 457.345 214.408 457.345 213.544C457.345 212.648 457.161 211.864 456.793 211.192C456.441 210.504 455.945 209.96 455.305 209.56C454.665 209.144 453.937 208.936 453.121 208.936C452.305 208.936 451.569 209.136 450.913 209.536C450.273 209.936 449.761 210.488 449.377 211.192C449.009 211.88 448.825 212.664 448.825 213.544C448.825 214.408 449.009 215.192 449.377 215.896C449.761 216.584 450.273 217.128 450.913 217.528C451.569 217.928 452.305 218.128 453.121 218.128ZM466.364 220V218.368L471.308 213.016C472.284 211.976 473.06 211.12 473.636 210.448C474.228 209.776 474.66 209.176 474.932 208.648C475.204 208.12 475.34 207.56 475.34 206.968C475.34 205.992 475.052 205.24 474.476 204.712C473.9 204.184 473.14 203.92 472.196 203.92C471.236 203.92 470.42 204.2 469.748 204.76C469.076 205.304 468.612 206.08 468.356 207.088L466.22 206.536C466.428 205.576 466.812 204.744 467.372 204.04C467.932 203.336 468.628 202.792 469.46 202.408C470.292 202.024 471.204 201.832 472.196 201.832C473.284 201.832 474.236 202.048 475.052 202.48C475.884 202.896 476.532 203.48 476.996 204.232C477.476 204.984 477.716 205.856 477.716 206.848C477.716 207.504 477.58 208.144 477.308 208.768C477.036 209.392 476.636 210.056 476.108 210.76C475.58 211.448 474.892 212.248 474.044 213.16L469.628 217.96H478.1V220H466.364Z" fill="#696D75"/>
<g clip-path="url(#clip6_59_205)">
<path d="M506.232 198V222H530.232V198H506.232Z" fill="white"/>
<path d="M515.732 205L520.732 210L515.732 215" stroke="#696D75" stroke-width="2.5" stroke-linecap="round" stroke-linejoin="round"/>
</g>
<path d="M397.48 297.288C396.216 297.288 395.048 297.064 393.976 296.616C392.904 296.152 391.976 295.504 391.192 294.672C390.408 293.84 389.792 292.864 389.344 291.744C388.912 290.624 388.696 289.4 388.696 288.072C388.696 286.728 388.912 285.496 389.344 284.376C389.776 283.256 390.384 282.28 391.168 281.448C391.952 280.616 392.88 279.976 393.952 279.528C395.024 279.064 396.192 278.832 397.456 278.832C398.688 278.832 399.792 279.048 400.768 279.48C401.76 279.912 402.592 280.472 403.264 281.16C403.952 281.848 404.44 282.584 404.728 283.368L402.616 284.4C402.2 283.36 401.552 282.536 400.672 281.928C399.792 281.32 398.72 281.016 397.456 281.016C396.208 281.016 395.096 281.312 394.12 281.904C393.16 282.496 392.408 283.32 391.864 284.376C391.32 285.432 391.048 286.664 391.048 288.072C391.048 289.464 391.32 290.688 391.864 291.744C392.424 292.8 393.184 293.624 394.144 294.216C395.12 294.808 396.232 295.104 397.48 295.104C398.568 295.104 399.552 294.872 400.432 294.408C401.312 293.944 402.008 293.304 402.52 292.488C403.032 291.672 403.288 290.728 403.288 289.656V288.552L404.368 289.56H397.456V287.52H405.664V289.104C405.664 290.352 405.448 291.48 405.016 292.488C404.584 293.496 403.992 294.36 403.24 295.08C402.488 295.784 401.616 296.328 400.624 296.712C399.632 297.096 398.584 297.288 397.48 297.288ZM408.577 297V284.064H410.761V286.44L410.521 286.104C410.825 285.368 411.289 284.824 411.913 284.472C412.537 284.104 413.297 283.92 414.193 283.92H414.985V286.032H413.857C412.945 286.032 412.209 286.32 411.649 286.896C411.089 287.456 410.809 288.256 410.809 289.296V297H408.577ZM423.112 297.288C421.864 297.288 420.736 297 419.728 296.424C418.72 295.832 417.92 295.024 417.328 294C416.736 292.976 416.44 291.816 416.44 290.52C416.44 289.224 416.728 288.072 417.304 287.064C417.896 286.056 418.696 285.256 419.704 284.664C420.712 284.072 421.848 283.776 423.112 283.776C424.36 283.776 425.488 284.072 426.496 284.664C427.504 285.24 428.296 286.032 428.872 287.04C429.464 288.048 429.76 289.208 429.76 290.52C429.76 291.832 429.456 293 428.848 294.024C428.24 295.032 427.432 295.832 426.424 296.424C425.432 297 424.328 297.288 423.112 297.288ZM423.112 295.128C423.912 295.128 424.632 294.928 425.272 294.528C425.928 294.128 426.44 293.576 426.808 292.872C427.192 292.168 427.384 291.384 427.384 290.52C427.384 289.64 427.192 288.864 426.808 288.192C426.44 287.504 425.928 286.96 425.272 286.56C424.632 286.144 423.912 285.936 423.112 285.936C422.296 285.936 421.56 286.144 420.904 286.56C420.264 286.96 419.752 287.504 419.368 288.192C418.984 288.864 418.792 289.64 418.792 290.52C418.792 291.384 418.984 292.168 419.368 292.872C419.752 293.576 420.264 294.128 420.904 294.528C421.56 294.928 422.296 295.128 423.112 295.128ZM437.255 297.288C436.327 297.288 435.487 297.072 434.735 296.64C433.999 296.208 433.423 295.608 433.007 294.84C432.607 294.056 432.407 293.16 432.407 292.152V284.064H434.639V291.912C434.639 292.552 434.767 293.112 435.023 293.592C435.295 294.072 435.663 294.448 436.127 294.72C436.607 294.992 437.151 295.128 437.759 295.128C438.367 295.128 438.903 294.992 439.367 294.72C439.847 294.448 440.215 294.056 440.471 293.544C440.743 293.032 440.879 292.424 440.879 291.72V284.064H443.135V297H440.951V294.48L441.311 294.696C441.007 295.512 440.487 296.152 439.751 296.616C439.031 297.064 438.199 297.288 437.255 297.288ZM446.593 301.8V284.064H448.777V286.848L448.489 286.296C448.969 285.528 449.625 284.92 450.457 284.472C451.289 284.008 452.241 283.776 453.313 283.776C454.529 283.776 455.617 284.072 456.577 284.664C457.553 285.256 458.321 286.064 458.881 287.088C459.441 288.096 459.721 289.248 459.721 290.544C459.721 291.808 459.441 292.952 458.881 293.976C458.321 295 457.553 295.808 456.577 296.4C455.617 296.992 454.521 297.288 453.289 297.288C452.249 297.288 451.297 297.056 450.433 296.592C449.585 296.128 448.929 295.472 448.465 294.624L448.825 294.24V301.8H446.593ZM453.121 295.128C453.937 295.128 454.665 294.928 455.305 294.528C455.945 294.128 456.441 293.584 456.793 292.896C457.161 292.192 457.345 291.408 457.345 290.544C457.345 289.648 457.161 288.864 456.793 288.192C456.441 287.504 455.945 286.96 455.305 286.56C454.665 286.144 453.937 285.936 453.121 285.936C452.305 285.936 451.569 286.136 450.913 286.536C450.273 286.936 449.761 287.488 449.377 288.192C449.009 288.88 448.825 289.664 448.825 290.544C448.825 291.408 449.009 292.192 449.377 292.896C449.761 293.584 450.273 294.128 450.913 294.528C451.569 294.928 452.305 295.128 453.121 295.128ZM472.124 297.288C471.18 297.288 470.3 297.12 469.484 296.784C468.668 296.448 467.964 295.976 467.372 295.368C466.78 294.744 466.34 294.008 466.052 293.16L468.044 292.344C468.38 293.24 468.908 293.936 469.628 294.432C470.348 294.928 471.18 295.176 472.124 295.176C472.86 295.176 473.516 295.032 474.092 294.744C474.668 294.456 475.116 294.04 475.436 293.496C475.772 292.952 475.94 292.296 475.94 291.528C475.94 290.744 475.772 290.088 475.436 289.56C475.116 289.016 474.668 288.6 474.092 288.312C473.516 288.024 472.852 287.88 472.1 287.88C471.86 287.88 471.596 287.896 471.308 287.928C471.036 287.96 470.804 288.008 470.612 288.072L470.108 286.992L474.884 281.16H466.964V279.12H477.548V281.088L472.988 286.704L472.844 286.08C473.916 286.112 474.86 286.36 475.676 286.824C476.492 287.288 477.132 287.92 477.596 288.72C478.06 289.504 478.292 290.424 478.292 291.48C478.292 292.568 478.028 293.552 477.5 294.432C476.972 295.312 476.244 296.008 475.316 296.52C474.388 297.032 473.324 297.288 472.124 297.288Z" fill="#696D75"/>
<g clip-path="url(#clip7_59_205)">
<path d="M506.232 275V299H530.232V275H506.232Z" fill="white"/>
<path d="M515.732 282L520.732 287L515.732 292" stroke="#696D75" stroke-width="2.5" stroke-linecap="round" stroke-linejoin="round"/>
</g>
<path d="M397.48 374.288C396.216 374.288 395.048 374.064 393.976 373.616C392.904 373.152 391.976 372.504 391.192 371.672C390.408 370.84 389.792 369.864 389.344 368.744C388.912 367.624 388.696 366.4 388.696 365.072C388.696 363.728 388.912 362.496 389.344 361.376C389.776 360.256 390.384 359.28 391.168 358.448C391.952 357.616 392.88 356.976 393.952 356.528C395.024 356.064 396.192 355.832 397.456 355.832C398.688 355.832 399.792 356.048 400.768 356.48C401.76 356.912 402.592 357.472 403.264 358.16C403.952 358.848 404.44 359.584 404.728 360.368L402.616 361.4C402.2 360.36 401.552 359.536 400.672 358.928C399.792 358.32 398.72 358.016 397.456 358.016C396.208 358.016 395.096 358.312 394.12 358.904C393.16 359.496 392.408 360.32 391.864 361.376C391.32 362.432 391.048 363.664 391.048 365.072C391.048 366.464 391.32 367.688 391.864 368.744C392.424 369.8 393.184 370.624 394.144 371.216C395.12 371.808 396.232 372.104 397.48 372.104C398.568 372.104 399.552 371.872 400.432 371.408C401.312 370.944 402.008 370.304 402.52 369.488C403.032 368.672 403.288 367.728 403.288 366.656V365.552L404.368 366.56H397.456V364.52H405.664V366.104C405.664 367.352 405.448 368.48 405.016 369.488C404.584 370.496 403.992 371.36 403.24 372.08C402.488 372.784 401.616 373.328 400.624 373.712C399.632 374.096 398.584 374.288 397.48 374.288ZM408.577 374V361.064H410.761V363.44L410.521 363.104C410.825 362.368 411.289 361.824 411.913 361.472C412.537 361.104 413.297 360.92 414.193 360.92H414.985V363.032H413.857C412.945 363.032 412.209 363.32 411.649 363.896C411.089 364.456 410.809 365.256 410.809 366.296V374H408.577ZM423.112 374.288C421.864 374.288 420.736 374 419.728 373.424C418.72 372.832 417.92 372.024 417.328 371C416.736 369.976 416.44 368.816 416.44 367.52C416.44 366.224 416.728 365.072 417.304 364.064C417.896 363.056 418.696 362.256 419.704 361.664C420.712 361.072 421.848 360.776 423.112 360.776C424.36 360.776 425.488 361.072 426.496 361.664C427.504 362.24 428.296 363.032 428.872 364.04C429.464 365.048 429.76 366.208 429.76 367.52C429.76 368.832 429.456 370 428.848 371.024C428.24 372.032 427.432 372.832 426.424 373.424C425.432 374 424.328 374.288 423.112 374.288ZM423.112 372.128C423.912 372.128 424.632 371.928 425.272 371.528C425.928 371.128 426.44 370.576 426.808 369.872C427.192 369.168 427.384 368.384 427.384 367.52C427.384 366.64 427.192 365.864 426.808 365.192C426.44 364.504 425.928 363.96 425.272 363.56C424.632 363.144 423.912 362.936 423.112 362.936C422.296 362.936 421.56 363.144 420.904 363.56C420.264 363.96 419.752 364.504 419.368 365.192C418.984 365.864 418.792 366.64 418.792 367.52C418.792 368.384 418.984 369.168 419.368 369.872C419.752 370.576 420.264 371.128 420.904 371.528C421.56 371.928 422.296 372.128 423.112 372.128ZM437.255 374.288C436.327 374.288 435.487 374.072 434.735 373.64C433.999 373.208 433.423 372.608 433.007 371.84C432.607 371.056 432.407 370.16 432.407 369.152V361.064H434.639V368.912C434.639 369.552 434.767 370.112 435.023 370.592C435.295 371.072 435.663 371.448 436.127 371.72C436.607 371.992 437.151 372.128 437.759 372.128C438.367 372.128 438.903 371.992 439.367 371.72C439.847 371.448 440.215 371.056 440.471 370.544C440.743 370.032 440.879 369.424 440.879 368.72V361.064H443.135V374H440.951V371.48L441.311 371.696C441.007 372.512 440.487 373.152 439.751 373.616C439.031 374.064 438.199 374.288 437.255 374.288ZM446.593 378.8V361.064H448.777V363.848L448.489 363.296C448.969 362.528 449.625 361.92 450.457 361.472C451.289 361.008 452.241 360.776 453.313 360.776C454.529 360.776 455.617 361.072 456.577 361.664C457.553 362.256 458.321 363.064 458.881 364.088C459.441 365.096 459.721 366.248 459.721 367.544C459.721 368.808 459.441 369.952 458.881 370.976C458.321 372 457.553 372.808 456.577 373.4C455.617 373.992 454.521 374.288 453.289 374.288C452.249 374.288 451.297 374.056 450.433 373.592C449.585 373.128 448.929 372.472 448.465 371.624L448.825 371.24V378.8H446.593ZM453.121 372.128C453.937 372.128 454.665 371.928 455.305 371.528C455.945 371.128 456.441 370.584 456.793 369.896C457.161 369.192 457.345 368.408 457.345 367.544C457.345 366.648 457.161 365.864 456.793 365.192C456.441 364.504 455.945 363.96 455.305 363.56C454.665 363.144 453.937 362.936 453.121 362.936C452.305 362.936 451.569 363.136 450.913 363.536C450.273 363.936 449.761 364.488 449.377 365.192C449.009 365.88 448.825 366.664 448.825 367.544C448.825 368.408 449.009 369.192 449.377 369.896C449.761 370.584 450.273 371.128 450.913 371.528C451.569 371.928 452.305 372.128 453.121 372.128ZM474.884 374V369.872H466.1V367.928L474.836 356.12H477.092V367.928H479.42V369.872H477.092V374H474.884ZM467.876 368.768L467.54 367.928H474.884V358.088L475.58 358.28L467.876 368.768Z" fill="#696D75"/>
<g clip-path="url(#clip8_59_205)">
<path d="M507.232 352V376H531.232V352H507.232Z" fill="white"/>
<path d="M516.732 359L521.732 364L516.732 369" stroke="#696D75" stroke-width="2.5" stroke-linecap="round" stroke-linejoin="round"/>
</g>
<path d="M701.232 0V438H703.232V0H701.232Z" fill="#E4E4E7" mask="url(#path-18-inside-2_59_205)"/>
</g>
<defs>
<clipPath id="clip0_59_205">
<rect width="702.768" height="436" fill="white" transform="translate(0.232178)"/>
</clipPath>
<clipPath id="clip1_59_205">
<rect width="24" height="24" fill="white" transform="matrix(0 -1 1 0 180.232 125)"/>
</clipPath>
<clipPath id="clip2_59_205">
<rect width="24" height="24" fill="white" transform="matrix(0 -1 1 0 256.232 202)"/>
</clipPath>
<clipPath id="clip3_59_205">
<rect width="24" height="24" fill="white" transform="matrix(0 -1 1 0 333.232 289)"/>
</clipPath>
<clipPath id="clip4_59_205">
<rect width="24" height="24" fill="white" transform="matrix(0 -1 1 0 162.232 376)"/>
</clipPath>
<clipPath id="clip5_59_205">
<rect width="24" height="24" fill="white" transform="matrix(0 -1 1 0 505.232 135)"/>
</clipPath>
<clipPath id="clip6_59_205">
<rect width="24" height="24" fill="white" transform="matrix(0 -1 1 0 506.232 222)"/>
</clipPath>
<clipPath id="clip7_59_205">
<rect width="24" height="24" fill="white" transform="matrix(0 -1 1 0 506.232 299)"/>
</clipPath>
<clipPath id="clip8_59_205">
<rect width="24" height="24" fill="white" transform="matrix(0 -1 1 0 507.232 376)"/>
</clipPath>
</defs>
</svg>
