<?xml version="1.0" encoding="UTF-8" standalone="no"?>
<!-- Created with Inkscape (http://www.inkscape.org/) -->

<svg
   width="5.4355206mm"
   height="6.0645361mm"
   viewBox="0 0 5.4355207 6.0645361"
   version="1.1"
   id="svg1"
   xml:space="preserve"
   sodipodi:docname="Logo.svg"
   xmlns:inkscape="http://www.inkscape.org/namespaces/inkscape"
   xmlns:sodipodi="http://sodipodi.sourceforge.net/DTD/sodipodi-0.dtd"
   xmlns:xlink="http://www.w3.org/1999/xlink"
   xmlns="http://www.w3.org/2000/svg"
   xmlns:svg="http://www.w3.org/2000/svg"><sodipodi:namedview
     id="namedview1"
     pagecolor="#505050"
     bordercolor="#eeeeee"
     borderopacity="1"
     inkscape:showpageshadow="0"
     inkscape:pageopacity="0"
     inkscape:pagecheckerboard="0"
     inkscape:deskcolor="#505050"
     inkscape:document-units="mm"
     inkscape:export-bgcolor="#ffffff00" /><defs
     id="defs1"><linearGradient
       id="a"
       y2="0.278"
       x2="0.25999999"
       y1="0.95599997"
       x1="0.61299998"><stop
         offset="0%"
         stop-color="#00A0FF"
         id="stop1" /><stop
         offset=".657%"
         stop-color="#00A1FF"
         id="stop2" /><stop
         offset="26.01%"
         stop-color="#00BEFF"
         id="stop3" /><stop
         offset="51.22%"
         stop-color="#00D2FF"
         id="stop4" /><stop
         offset="76.04%"
         stop-color="#00DFFF"
         id="stop5" /><stop
         offset="100%"
         stop-color="#00E3FF"
         id="stop6" /></linearGradient><linearGradient
       id="b"
       y2="0.509"
       x2="-1.3049999"
       y1="0.509"
       x1="1.076"><stop
         offset="0%"
         stop-color="#FFE000"
         id="stop7" /><stop
         offset="40.87%"
         stop-color="#FFBD00"
         id="stop8" /><stop
         offset="77.54%"
         stop-color="orange"
         id="stop9" /><stop
         offset="100%"
         stop-color="#FF9C00"
         id="stop10" /></linearGradient><linearGradient
       id="c"
       y2="-0.361"
       x2="-0.505"
       y1="0.69099998"
       x1="0.86699998"><stop
         offset="0%"
         stop-color="#FF3A44"
         id="stop11" /><stop
         offset="100%"
         stop-color="#C31162"
         id="stop12" /></linearGradient><linearGradient
       id="d"
       y2="0.64899999"
       x2="0.41800001"
       y1="1.119"
       x1="-0.193"><stop
         offset="0%"
         stop-color="#32A071"
         id="stop13" /><stop
         offset="6.85%"
         stop-color="#2DA771"
         id="stop14" /><stop
         offset="47.62%"
         stop-color="#15CF74"
         id="stop15" /><stop
         offset="80.09%"
         stop-color="#06E775"
         id="stop16" /><stop
         offset="100%"
         stop-color="#00F076"
         id="stop17" /></linearGradient><linearGradient
       id="e"
       y2="-0.021"
       x2="-0.50099999"
       y1="0.69499999"
       x1="0.86199999"><stop
         offset="0%"
         stop-color="#CC2E36"
         id="stop18" /><stop
         offset="100%"
         stop-color="#9C0E4E"
         id="stop19" /></linearGradient><linearGradient
       id="f"
       y2="4.4959998"
       x2="-0.66299999"
       y1="15.318"
       x1="3.073"><stop
         offset="0%"
         stop-color="#008DE0"
         id="stop20" /><stop
         offset=".657%"
         stop-color="#008DE0"
         id="stop21" /><stop
         offset="26.01%"
         stop-color="#00A7E0"
         id="stop22" /><stop
         offset="51.22%"
         stop-color="#00B8E0"
         id="stop23" /><stop
         offset="76.04%"
         stop-color="#00C4E0"
         id="stop24" /><stop
         offset="100%"
         stop-color="#00C7E0"
         id="stop25" /></linearGradient><linearGradient
       id="g"
       y2="1"
       x2="-2.882"
       y1="1"
       x1="1.128"><stop
         offset="0%"
         stop-color="#E0C500"
         id="stop26" /><stop
         offset="40.87%"
         stop-color="#E0A600"
         id="stop27" /><stop
         offset="77.54%"
         stop-color="#E09100"
         id="stop28" /><stop
         offset="100%"
         stop-color="#E08900"
         id="stop29" /></linearGradient><linearGradient
       id="h"
       y2="0"
       x2="-2.882"
       y1="0"
       x1="1.128"><stop
         offset="0%"
         stop-color="#FFE840"
         id="stop30" /><stop
         offset="40.87%"
         stop-color="#FFCE40"
         id="stop31" /><stop
         offset="77.54%"
         stop-color="#FFBC40"
         id="stop32" /><stop
         offset="100%"
         stop-color="#FFB540"
         id="stop33" /></linearGradient><linearGradient
       id="i"
       y2="-10.098"
       x2="-0.65700001"
       y1="0.234"
       x1="3.0610001"><stop
         offset="0%"
         stop-color="#40B8FF"
         id="stop34" /><stop
         offset=".657%"
         stop-color="#40B9FF"
         id="stop35" /><stop
         offset="26.01%"
         stop-color="#40CEFF"
         id="stop36" /><stop
         offset="51.22%"
         stop-color="#40DDFF"
         id="stop37" /><stop
         offset="76.04%"
         stop-color="#40E7FF"
         id="stop38" /><stop
         offset="100%"
         stop-color="#40EAFF"
         id="stop39" /></linearGradient><linearGradient
       id="j"
       y2="0.537"
       x2="0.421"
       y1="0.85600001"
       x1="-0.18799999"><stop
         offset="0%"
         stop-color="#65B895"
         id="stop40" /><stop
         offset="6.85%"
         stop-color="#62BD95"
         id="stop41" /><stop
         offset="47.62%"
         stop-color="#50DB97"
         id="stop42" /><stop
         offset="80.09%"
         stop-color="#44ED98"
         id="stop43" /><stop
         offset="100%"
         stop-color="#40F498"
         id="stop44" /></linearGradient><linearGradient
       gradientUnits="userSpaceOnUse"
       gradientTransform="matrix(0.72167,0,0,-1.38567,171.55338,686.63558)"
       y2="110.924"
       x2="103.763"
       y1="380.41299"
       x1="243.89"
       id="k"
       xlink:href="#a" /><linearGradient
       gradientUnits="userSpaceOnUse"
       gradientTransform="matrix(1.1083,0,0,-0.90228,458.12438,503.40458)"
       y2="104.456"
       x2="-265.185"
       y1="104.456"
       x1="219.82001"
       id="l"
       xlink:href="#b" /><linearGradient
       gradientUnits="userSpaceOnUse"
       gradientTransform="matrix(1.13894,0,0,-0.878,183.16138,693.76058)"
       y2="-116.045"
       x2="-162.25999"
       y1="222.80299"
       x1="279.815"
       id="m"
       xlink:href="#c" /><linearGradient
       gradientUnits="userSpaceOnUse"
       gradientTransform="matrix(1.13896,0,0,-0.878,183.38238,411.45258)"
       y2="210.03"
       x2="134.98399"
       y1="361.33499"
       x1="-62.115002"
       id="n"
       xlink:href="#d" /><linearGradient
       gradientUnits="userSpaceOnUse"
       gradientTransform="matrix(1.38147,0,0,-0.72387,181.16138,697.76058)"
       y2="-4.388"
       x2="-133.972"
       y1="187.683"
       x1="231.994"
       id="o"
       xlink:href="#e" /><linearGradient
       gradientUnits="userSpaceOnUse"
       gradientTransform="matrix(0.58803,0,0,-1.7006,171.55338,688.86058)"
       y2="91.690002"
       x2="-13.255"
       y1="311.27399"
       x1="62.549"
       id="p"
       xlink:href="#f" /><linearGradient
       gradientUnits="userSpaceOnUse"
       gradientTransform="matrix(1.19442,0,0,-0.83723,549.92638,504.90458)"
       y2="112.451"
       x2="-322.92401"
       y1="112.451"
       x1="127.112"
       id="q"
       xlink:href="#g" /><linearGradient
       gradientUnits="userSpaceOnUse"
       gradientTransform="matrix(1.1944,0,0,-0.83724,549.92638,411.45258)"
       y2="0.829"
       x2="-322.92801"
       y1="0.829"
       x1="127.114"
       id="r"
       xlink:href="#h" /><linearGradient
       gradientUnits="userSpaceOnUse"
       gradientTransform="matrix(0.58722,0,0,-1.70294,171.55338,168.19358)"
       y2="-204.589"
       x2="-13.13"
       y1="4.8779998"
       x1="62.249001"
       id="s"
       xlink:href="#i" /><linearGradient
       gradientUnits="userSpaceOnUse"
       gradientTransform="matrix(1.38144,0,0,-0.72388,181.16138,319.49858)"
       y2="144.927"
       x2="113.528"
       y1="230.7"
       x1="-49.894001"
       id="t"
       xlink:href="#j" /></defs><g
     inkscape:label="Layer 1"
     inkscape:groupmode="layer"
     id="layer1"
     transform="translate(-95.480239,-187.70779)"><g
       fill="none"
       id="g64"
       transform="matrix(0.01059671,0,0,0.01059671,93.661118,186.38749)"><path
         fill="#00c1ff"
         d="m 183.57338,135.06958 c -7.455,6.737 -11.905,17.974 -11.905,32.89 v -3.372 492.21 -3.242 c 0,13.775 3.817,24.413 10.281,31.264 l 1.65,1.582 v 0.007 c 5.232,4.729 11.941,7.24 19.63,7.232 7.513,0 15.966,-2.399 24.887,-7.465 l 322.452,-183.508 110.76,-63.041 c 14.067,-8.004 21.964,-18.33 23.284,-28.848 v -0.043 c -1.32,-10.542 -9.217,-20.86 -23.283,-28.865 l -110.77,-63.033 -322.442,-183.508 c -8.94,-5.075 -17.399,-7.483 -24.932,-7.483 -7.68,0 -14.38,2.503 -19.61,7.223 z"
         id="path54" /><path
         d="m 183.60038,686.40158 -1.651,-1.582 c -6.464,-6.85 -10.281,-17.489 -10.281,-31.264 v 3.242 -492.088 3.25 c 0,-14.916 4.45,-26.153 11.905,-32.89 l 275.237,275.675 -275.21,275.657"
         fill="url(#k)"
         id="path55"
         style="fill:url(#k)" /><path
         d="m 550.56838,502.66658 -91.758,-91.922 91.75,-91.907 110.769,63.032 c 14.066,8.006 21.963,18.323 23.283,28.866 v 0.042 c -1.32,10.518 -9.217,20.845 -23.283,28.848 l -110.76,63.04"
         fill="url(#l)"
         id="path56"
         style="fill:url(#l)" /><path
         d="m 203.22938,693.64058 c -7.688,0.007 -14.397,-2.505 -19.628,-7.233 v -0.007 l 275.21,-275.657 91.758,91.922 -322.453,183.509 c -8.921,5.067 -17.374,7.466 -24.887,7.466"
         fill="url(#m)"
         id="path57"
         style="fill:url(#m)" /><path
         d="m 458.81038,410.74558 -275.238,-275.675 c 5.232,-4.72 11.932,-7.223 19.611,-7.223 7.533,0 15.993,2.407 24.932,7.483 l 322.444,183.508 -91.75,91.907"
         fill="url(#n)"
         id="path58"
         style="fill:url(#n)" /><path
         d="m 203.23838,696.89958 c -7.688,0 -14.406,-2.512 -19.638,-7.24 l -0.009,0.008 a 0.635,0.635 0 0 0 -0.069,-0.06 l -1.431,-1.4 c -0.045,-0.044 -0.087,-0.095 -0.14,-0.146 l 1.65,-1.653 c 5.232,4.728 11.94,7.24 19.63,7.231 7.512,0 15.965,-2.398 24.886,-7.465 l 322.452,-183.508 2.066,2.07 -2.092,1.19 -322.427,183.498 c -8.13,4.616 -15.863,7.023 -22.848,7.424 a 41.848,41.848 0 0 1 -2.03,0.05"
         fill="url(#o)"
         id="path59"
         style="fill:url(#o)" /><path
         d="m 181.94938,688.06158 c -6.464,-6.85 -10.281,-17.48 -10.281,-31.264 v -3.242 c 0,13.775 3.817,24.413 10.281,31.264 l 1.65,1.582 -1.65,1.66"
         fill="url(#p)"
         id="path60"
         style="fill:url(#p)" /><path
         d="m 552.63438,504.73558 -2.066,-2.07 110.76,-63.04 c 14.067,-8.003 21.964,-18.33 23.284,-28.848 0,3.86 -0.86,7.719 -2.568,11.475 -3.446,7.57 -10.352,14.723 -20.715,20.624 l -108.695,61.86"
         fill="url(#q)"
         id="path61"
         style="fill:url(#q)" /><path
         d="m 684.61238,410.73658 c -1.32,-10.543 -9.217,-20.86 -23.283,-28.866 l -110.77,-63.032 2.066,-2.07 h 0.009 l 108.695,61.86 c 15.508,8.831 23.274,20.468 23.283,32.108"
         fill="url(#r)"
         id="path62"
         style="fill:url(#r)" /><path
         d="m 171.66838,167.95958 v -3.4 c 0,-1.226 0.033,-2.425 0.096,-3.589 v -0.053 c 0,-0.016 0,-0.033 0.006,-0.051 v -0.131 c 0.669,-11.865 4.348,-21.12 10.179,-27.3 l 1.624,1.633 c -7.455,6.738 -11.905,17.975 -11.905,32.891"
         fill="url(#s)"
         id="path63"
         style="fill:url(#s)" /><path
         d="m 550.55938,318.83858 -322.443,-183.51 c -8.939,-5.075 -17.398,-7.482 -24.931,-7.482 -7.68,0 -14.38,2.503 -19.611,7.223 l -1.624,-1.634 a 29.747,29.747 0 0 1 1.58,-1.555 c 0.017,-0.018 0.044,-0.036 0.061,-0.053 5.19,-4.684 11.819,-7.187 19.43,-7.232 h 0.164 c 7.533,0 15.992,2.408 24.931,7.485 l 324.518,184.681 -0.009,0.007 -2.066,2.07"
         fill="url(#t)"
         id="path64"
         style="fill:url(#t)" /></g></g></svg>
